# Adao - Vira-lata Caramelo (Low-Poly)
# Gerado proceduralmente para Canicross

v 0.000000 0.540000 0.000000
v 0.000000 0.540000 0.000000
v 0.000000 0.540000 0.000000
v 0.000000 0.540000 0.000000
v 0.000000 0.540000 0.000000
v 0.000000 0.540000 0.000000
v 0.000000 0.540000 0.000000
v 0.000000 0.540000 0.000000
v 0.000000 0.540000 0.000000
v 0.000000 0.540000 0.000000
v 0.000000 0.540000 0.000000
v 0.000000 0.540000 0.000000
v 0.000000 0.540000 0.000000
v 0.000000 0.540000 0.000000
v 0.040172 0.532169 0.000000
v 0.036194 0.532169 0.042905
v 0.025047 0.532169 0.077312
v 0.008939 0.532169 0.096406
v -0.008939 0.532169 0.096406
v -0.025047 0.532169 0.077312
v -0.036194 0.532169 0.042905
v -0.040172 0.532169 0.000000
v -0.036194 0.532169 -0.042905
v -0.025047 0.532169 -0.077312
v -0.008939 0.532169 -0.096406
v 0.008939 0.532169 -0.096406
v 0.025047 0.532169 -0.077312
v 0.036194 0.532169 -0.042905
v 0.076412 0.509443 0.000000
v 0.068845 0.509443 0.081610
v 0.047642 0.509443 0.147056
v 0.017003 0.509443 0.183375
v -0.017003 0.509443 0.183375
v -0.047642 0.509443 0.147056
v -0.068845 0.509443 0.081610
v -0.076412 0.509443 0.000000
v -0.068845 0.509443 -0.081610
v -0.047642 0.509443 -0.147056
v -0.017003 0.509443 -0.183375
v 0.017003 0.509443 -0.183375
v 0.047642 0.509443 -0.147056
v 0.068845 0.509443 -0.081610
v 0.105172 0.474046 0.000000
v 0.094757 0.474046 0.112326
v 0.065574 0.474046 0.202405
v 0.023403 0.474046 0.252395
v -0.023403 0.474046 0.252395
v -0.065574 0.474046 0.202405
v -0.094757 0.474046 0.112326
v -0.105172 0.474046 0.000000
v -0.094757 0.474046 -0.112326
v -0.065574 0.474046 -0.202405
v -0.023403 0.474046 -0.252395
v 0.023403 0.474046 -0.252395
v 0.065574 0.474046 -0.202405
v 0.094757 0.474046 -0.112326
v 0.123637 0.429443 0.000000
v 0.111393 0.429443 0.132047
v 0.077087 0.429443 0.237941
v 0.027512 0.429443 0.296708
v -0.027512 0.429443 0.296708
v -0.077087 0.429443 0.237941
v -0.111393 0.429443 0.132047
v -0.123637 0.429443 0.000000
v -0.111393 0.429443 -0.132047
v -0.077087 0.429443 -0.237941
v -0.027512 0.429443 -0.296708
v 0.027512 0.429443 -0.296708
v 0.077087 0.429443 -0.237941
v 0.111393 0.429443 -0.132047
v 0.130000 0.380000 0.000000
v 0.117126 0.380000 0.138843
v 0.081054 0.380000 0.250186
v 0.028928 0.380000 0.311977
v -0.028928 0.380000 0.311977
v -0.081054 0.380000 0.250186
v -0.117126 0.380000 0.138843
v -0.130000 0.380000 0.000000
v -0.117126 0.380000 -0.138843
v -0.081054 0.380000 -0.250186
v -0.028928 0.380000 -0.311977
v 0.028928 0.380000 -0.311977
v 0.081054 0.380000 -0.250186
v 0.117126 0.380000 -0.138843
v 0.123637 0.330557 0.000000
v 0.111393 0.330557 0.132047
v 0.077087 0.330557 0.237941
v 0.027512 0.330557 0.296708
v -0.027512 0.330557 0.296708
v -0.077087 0.330557 0.237941
v -0.111393 0.330557 0.132047
v -0.123637 0.330557 0.000000
v -0.111393 0.330557 -0.132047
v -0.077087 0.330557 -0.237941
v -0.027512 0.330557 -0.296708
v 0.027512 0.330557 -0.296708
v 0.077087 0.330557 -0.237941
v 0.111393 0.330557 -0.132047
v 0.105172 0.285954 0.000000
v 0.094757 0.285954 0.112326
v 0.065574 0.285954 0.202405
v 0.023403 0.285954 0.252395
v -0.023403 0.285954 0.252395
v -0.065574 0.285954 0.202405
v -0.094757 0.285954 0.112326
v -0.105172 0.285954 0.000000
v -0.094757 0.285954 -0.112326
v -0.065574 0.285954 -0.202405
v -0.023403 0.285954 -0.252395
v 0.023403 0.285954 -0.252395
v 0.065574 0.285954 -0.202405
v 0.094757 0.285954 -0.112326
v 0.076412 0.250557 0.000000
v 0.068845 0.250557 0.081610
v 0.047642 0.250557 0.147056
v 0.017003 0.250557 0.183375
v -0.017003 0.250557 0.183375
v -0.047642 0.250557 0.147056
v -0.068845 0.250557 0.081610
v -0.076412 0.250557 0.000000
v -0.068845 0.250557 -0.081610
v -0.047642 0.250557 -0.147056
v -0.017003 0.250557 -0.183375
v 0.017003 0.250557 -0.183375
v 0.047642 0.250557 -0.147056
v 0.068845 0.250557 -0.081610
v 0.040172 0.227831 0.000000
v 0.036194 0.227831 0.042905
v 0.025047 0.227831 0.077312
v 0.008939 0.227831 0.096406
v -0.008939 0.227831 0.096406
v -0.025047 0.227831 0.077312
v -0.036194 0.227831 0.042905
v -0.040172 0.227831 0.000000
v -0.036194 0.227831 -0.042905
v -0.025047 0.227831 -0.077312
v -0.008939 0.227831 -0.096406
v 0.008939 0.227831 -0.096406
v 0.025047 0.227831 -0.077312
v 0.036194 0.227831 -0.042905
v 0.000000 0.220000 0.000000
v 0.000000 0.220000 0.000000
v 0.000000 0.220000 0.000000
v 0.000000 0.220000 0.000000
v -0.000000 0.220000 0.000000
v -0.000000 0.220000 0.000000
v -0.000000 0.220000 0.000000
v -0.000000 0.220000 0.000000
v -0.000000 0.220000 -0.000000
v -0.000000 0.220000 -0.000000
v -0.000000 0.220000 -0.000000
v 0.000000 0.220000 -0.000000
v 0.000000 0.220000 -0.000000
v 0.000000 0.220000 -0.000000
v 0.000000 0.500000 -0.180000
v 0.000000 0.500000 -0.180000
v 0.000000 0.500000 -0.180000
v 0.000000 0.500000 -0.180000
v 0.000000 0.500000 -0.180000
v 0.000000 0.500000 -0.180000
v 0.000000 0.500000 -0.180000
v 0.000000 0.500000 -0.180000
v 0.000000 0.500000 -0.180000
v 0.000000 0.500000 -0.180000
v 0.000000 0.500000 -0.180000
v 0.000000 0.500000 -0.180000
v 0.053576 0.489343 -0.180000
v 0.046398 0.489343 -0.151299
v 0.026788 0.489343 -0.130288
v 0.000000 0.489343 -0.122597
v -0.026788 0.489343 -0.130288
v -0.046398 0.489343 -0.151299
v -0.053576 0.489343 -0.180000
v -0.046398 0.489343 -0.208701
v -0.026788 0.489343 -0.229712
v -0.000000 0.489343 -0.237403
v 0.026788 0.489343 -0.229712
v 0.046398 0.489343 -0.208701
v 0.098995 0.458995 -0.180000
v 0.085732 0.458995 -0.126967
v 0.049497 0.458995 -0.088144
v 0.000000 0.458995 -0.073934
v -0.049497 0.458995 -0.088144
v -0.085732 0.458995 -0.126967
v -0.098995 0.458995 -0.180000
v -0.085732 0.458995 -0.233033
v -0.049497 0.458995 -0.271856
v -0.000000 0.458995 -0.286066
v 0.049497 0.458995 -0.271856
v 0.085732 0.458995 -0.233033
v 0.129343 0.413576 -0.180000
v 0.112014 0.413576 -0.110709
v 0.064672 0.413576 -0.059985
v 0.000000 0.413576 -0.041418
v -0.064672 0.413576 -0.059985
v -0.112014 0.413576 -0.110709
v -0.129343 0.413576 -0.180000
v -0.112014 0.413576 -0.249291
v -0.064672 0.413576 -0.300015
v -0.000000 0.413576 -0.318582
v 0.064672 0.413576 -0.300015
v 0.112014 0.413576 -0.249291
v 0.140000 0.360000 -0.180000
v 0.121244 0.360000 -0.105000
v 0.070000 0.360000 -0.050096
v 0.000000 0.360000 -0.030000
v -0.070000 0.360000 -0.050096
v -0.121244 0.360000 -0.105000
v -0.140000 0.360000 -0.180000
v -0.121244 0.360000 -0.255000
v -0.070000 0.360000 -0.309904
v -0.000000 0.360000 -0.330000
v 0.070000 0.360000 -0.309904
v 0.121244 0.360000 -0.255000
v 0.129343 0.306424 -0.180000
v 0.112014 0.306424 -0.110709
v 0.064672 0.306424 -0.059985
v 0.000000 0.306424 -0.041418
v -0.064672 0.306424 -0.059985
v -0.112014 0.306424 -0.110709
v -0.129343 0.306424 -0.180000
v -0.112014 0.306424 -0.249291
v -0.064672 0.306424 -0.300015
v -0.000000 0.306424 -0.318582
v 0.064672 0.306424 -0.300015
v 0.112014 0.306424 -0.249291
v 0.098995 0.261005 -0.180000
v 0.085732 0.261005 -0.126967
v 0.049497 0.261005 -0.088144
v 0.000000 0.261005 -0.073934
v -0.049497 0.261005 -0.088144
v -0.085732 0.261005 -0.126967
v -0.098995 0.261005 -0.180000
v -0.085732 0.261005 -0.233033
v -0.049497 0.261005 -0.271856
v -0.000000 0.261005 -0.286066
v 0.049497 0.261005 -0.271856
v 0.085732 0.261005 -0.233033
v 0.053576 0.230657 -0.180000
v 0.046398 0.230657 -0.151299
v 0.026788 0.230657 -0.130288
v 0.000000 0.230657 -0.122597
v -0.026788 0.230657 -0.130288
v -0.046398 0.230657 -0.151299
v -0.053576 0.230657 -0.180000
v -0.046398 0.230657 -0.208701
v -0.026788 0.230657 -0.229712
v -0.000000 0.230657 -0.237403
v 0.026788 0.230657 -0.229712
v 0.046398 0.230657 -0.208701
v 0.000000 0.220000 -0.180000
v 0.000000 0.220000 -0.180000
v 0.000000 0.220000 -0.180000
v 0.000000 0.220000 -0.180000
v -0.000000 0.220000 -0.180000
v -0.000000 0.220000 -0.180000
v -0.000000 0.220000 -0.180000
v -0.000000 0.220000 -0.180000
v -0.000000 0.220000 -0.180000
v -0.000000 0.220000 -0.180000
v 0.000000 0.220000 -0.180000
v 0.000000 0.220000 -0.180000
v 0.000000 0.470000 0.180000
v 0.000000 0.470000 0.180000
v 0.000000 0.470000 0.180000
v 0.000000 0.470000 0.180000
v 0.000000 0.470000 0.180000
v 0.000000 0.470000 0.180000
v 0.000000 0.470000 0.180000
v 0.000000 0.470000 0.180000
v 0.000000 0.470000 0.180000
v 0.000000 0.470000 0.180000
v 0.000000 0.470000 0.180000
v 0.000000 0.470000 0.180000
v 0.042095 0.460866 0.180000
v 0.036455 0.460866 0.214442
v 0.021048 0.460866 0.239654
v 0.000000 0.460866 0.248883
v -0.021048 0.460866 0.239654
v -0.036455 0.460866 0.214442
v -0.042095 0.460866 0.180000
v -0.036455 0.460866 0.145558
v -0.021048 0.460866 0.120346
v -0.000000 0.460866 0.111117
v 0.021048 0.460866 0.120346
v 0.036455 0.460866 0.145558
v 0.077782 0.434853 0.180000
v 0.067361 0.434853 0.243640
v 0.038891 0.434853 0.290227
v 0.000000 0.434853 0.307279
v -0.038891 0.434853 0.290227
v -0.067361 0.434853 0.243640
v -0.077782 0.434853 0.180000
v -0.067361 0.434853 0.116360
v -0.038891 0.434853 0.069773
v -0.000000 0.434853 0.052721
v 0.038891 0.434853 0.069773
v 0.067361 0.434853 0.116360
v 0.101627 0.395922 0.180000
v 0.088011 0.395922 0.263149
v 0.050813 0.395922 0.324019
v 0.000000 0.395922 0.346298
v -0.050813 0.395922 0.324019
v -0.088011 0.395922 0.263149
v -0.101627 0.395922 0.180000
v -0.088011 0.395922 0.096851
v -0.050813 0.395922 0.035981
v -0.000000 0.395922 0.013702
v 0.050813 0.395922 0.035981
v 0.088011 0.395922 0.096851
v 0.110000 0.350000 0.180000
v 0.095263 0.350000 0.270000
v 0.055000 0.350000 0.335885
v 0.000000 0.350000 0.360000
v -0.055000 0.350000 0.335885
v -0.095263 0.350000 0.270000
v -0.110000 0.350000 0.180000
v -0.095263 0.350000 0.090000
v -0.055000 0.350000 0.024115
v -0.000000 0.350000 0.000000
v 0.055000 0.350000 0.024115
v 0.095263 0.350000 0.090000
v 0.101627 0.304078 0.180000
v 0.088011 0.304078 0.263149
v 0.050813 0.304078 0.324019
v 0.000000 0.304078 0.346298
v -0.050813 0.304078 0.324019
v -0.088011 0.304078 0.263149
v -0.101627 0.304078 0.180000
v -0.088011 0.304078 0.096851
v -0.050813 0.304078 0.035981
v -0.000000 0.304078 0.013702
v 0.050813 0.304078 0.035981
v 0.088011 0.304078 0.096851
v 0.077782 0.265147 0.180000
v 0.067361 0.265147 0.243640
v 0.038891 0.265147 0.290227
v 0.000000 0.265147 0.307279
v -0.038891 0.265147 0.290227
v -0.067361 0.265147 0.243640
v -0.077782 0.265147 0.180000
v -0.067361 0.265147 0.116360
v -0.038891 0.265147 0.069773
v -0.000000 0.265147 0.052721
v 0.038891 0.265147 0.069773
v 0.067361 0.265147 0.116360
v 0.042095 0.239134 0.180000
v 0.036455 0.239134 0.214442
v 0.021048 0.239134 0.239654
v 0.000000 0.239134 0.248883
v -0.021048 0.239134 0.239654
v -0.036455 0.239134 0.214442
v -0.042095 0.239134 0.180000
v -0.036455 0.239134 0.145558
v -0.021048 0.239134 0.120346
v -0.000000 0.239134 0.111117
v 0.021048 0.239134 0.120346
v 0.036455 0.239134 0.145558
v 0.000000 0.230000 0.180000
v 0.000000 0.230000 0.180000
v 0.000000 0.230000 0.180000
v 0.000000 0.230000 0.180000
v -0.000000 0.230000 0.180000
v -0.000000 0.230000 0.180000
v -0.000000 0.230000 0.180000
v -0.000000 0.230000 0.180000
v -0.000000 0.230000 0.180000
v -0.000000 0.230000 0.180000
v 0.000000 0.230000 0.180000
v 0.000000 0.230000 0.180000
v 0.065000 0.500000 -0.320000
v 0.052586 0.516147 -0.285374
v 0.020086 0.526126 -0.263973
v -0.020086 0.526126 -0.263973
v -0.052586 0.516147 -0.285374
v -0.065000 0.500000 -0.320000
v -0.052586 0.483853 -0.354626
v -0.020086 0.473874 -0.376027
v 0.020086 0.473874 -0.376027
v 0.052586 0.483853 -0.354626
v 0.080000 0.626883 -0.379167
v 0.064721 0.646756 -0.336549
v 0.024721 0.659038 -0.310211
v -0.024721 0.659038 -0.310211
v -0.064721 0.646756 -0.336549
v -0.080000 0.626883 -0.379167
v -0.064721 0.607010 -0.421784
v -0.024721 0.594728 -0.448123
v 0.024721 0.594728 -0.448123
v 0.064721 0.607010 -0.421784
v 0.000000 0.500000 -0.320000
v 0.000000 0.626883 -0.379167
v 0.000000 0.830000 -0.420000
v 0.000000 0.830000 -0.420000
v 0.000000 0.830000 -0.420000
v 0.000000 0.830000 -0.420000
v 0.000000 0.830000 -0.420000
v 0.000000 0.830000 -0.420000
v 0.000000 0.830000 -0.420000
v 0.000000 0.830000 -0.420000
v 0.000000 0.830000 -0.420000
v 0.000000 0.830000 -0.420000
v 0.000000 0.830000 -0.420000
v 0.000000 0.830000 -0.420000
v 0.030902 0.824616 -0.420000
v 0.026762 0.824616 -0.403004
v 0.015451 0.824616 -0.390562
v 0.000000 0.824616 -0.386008
v -0.015451 0.824616 -0.390562
v -0.026762 0.824616 -0.403004
v -0.030902 0.824616 -0.420000
v -0.026762 0.824616 -0.436996
v -0.015451 0.824616 -0.449438
v -0.000000 0.824616 -0.453992
v 0.015451 0.824616 -0.449438
v 0.026762 0.824616 -0.436996
v 0.058779 0.808992 -0.420000
v 0.050904 0.808992 -0.387672
v 0.029389 0.808992 -0.364006
v 0.000000 0.808992 -0.355344
v -0.029389 0.808992 -0.364006
v -0.050904 0.808992 -0.387672
v -0.058779 0.808992 -0.420000
v -0.050904 0.808992 -0.452328
v -0.029389 0.808992 -0.475994
v -0.000000 0.808992 -0.484656
v 0.029389 0.808992 -0.475994
v 0.050904 0.808992 -0.452328
v 0.080902 0.784656 -0.420000
v 0.070063 0.784656 -0.375504
v 0.040451 0.784656 -0.342931
v 0.000000 0.784656 -0.331008
v -0.040451 0.784656 -0.342931
v -0.070063 0.784656 -0.375504
v -0.080902 0.784656 -0.420000
v -0.070063 0.784656 -0.464496
v -0.040451 0.784656 -0.497069
v -0.000000 0.784656 -0.508992
v 0.040451 0.784656 -0.497069
v 0.070063 0.784656 -0.464496
v 0.095106 0.753992 -0.420000
v 0.082364 0.753992 -0.367692
v 0.047553 0.753992 -0.329400
v 0.000000 0.753992 -0.315384
v -0.047553 0.753992 -0.329400
v -0.082364 0.753992 -0.367692
v -0.095106 0.753992 -0.420000
v -0.082364 0.753992 -0.472308
v -0.047553 0.753992 -0.510600
v -0.000000 0.753992 -0.524616
v 0.047553 0.753992 -0.510600
v 0.082364 0.753992 -0.472308
v 0.100000 0.720000 -0.420000
v 0.086603 0.720000 -0.365000
v 0.050000 0.720000 -0.324737
v 0.000000 0.720000 -0.310000
v -0.050000 0.720000 -0.324737
v -0.086603 0.720000 -0.365000
v -0.100000 0.720000 -0.420000
v -0.086603 0.720000 -0.475000
v -0.050000 0.720000 -0.515263
v -0.000000 0.720000 -0.530000
v 0.050000 0.720000 -0.515263
v 0.086603 0.720000 -0.475000
v 0.095106 0.686008 -0.420000
v 0.082364 0.686008 -0.367692
v 0.047553 0.686008 -0.329400
v 0.000000 0.686008 -0.315384
v -0.047553 0.686008 -0.329400
v -0.082364 0.686008 -0.367692
v -0.095106 0.686008 -0.420000
v -0.082364 0.686008 -0.472308
v -0.047553 0.686008 -0.510600
v -0.000000 0.686008 -0.524616
v 0.047553 0.686008 -0.510600
v 0.082364 0.686008 -0.472308
v 0.080902 0.655344 -0.420000
v 0.070063 0.655344 -0.375504
v 0.040451 0.655344 -0.342931
v 0.000000 0.655344 -0.331008
v -0.040451 0.655344 -0.342931
v -0.070063 0.655344 -0.375504
v -0.080902 0.655344 -0.420000
v -0.070063 0.655344 -0.464496
v -0.040451 0.655344 -0.497069
v -0.000000 0.655344 -0.508992
v 0.040451 0.655344 -0.497069
v 0.070063 0.655344 -0.464496
v 0.058779 0.631008 -0.420000
v 0.050904 0.631008 -0.387672
v 0.029389 0.631008 -0.364006
v 0.000000 0.631008 -0.355344
v -0.029389 0.631008 -0.364006
v -0.050904 0.631008 -0.387672
v -0.058779 0.631008 -0.420000
v -0.050904 0.631008 -0.452328
v -0.029389 0.631008 -0.475994
v -0.000000 0.631008 -0.484656
v 0.029389 0.631008 -0.475994
v 0.050904 0.631008 -0.452328
v 0.030902 0.615384 -0.420000
v 0.026762 0.615384 -0.403004
v 0.015451 0.615384 -0.390562
v 0.000000 0.615384 -0.386008
v -0.015451 0.615384 -0.390562
v -0.026762 0.615384 -0.403004
v -0.030902 0.615384 -0.420000
v -0.026762 0.615384 -0.436996
v -0.015451 0.615384 -0.449438
v -0.000000 0.615384 -0.453992
v 0.015451 0.615384 -0.449438
v 0.026762 0.615384 -0.436996
v 0.000000 0.610000 -0.420000
v 0.000000 0.610000 -0.420000
v 0.000000 0.610000 -0.420000
v 0.000000 0.610000 -0.420000
v -0.000000 0.610000 -0.420000
v -0.000000 0.610000 -0.420000
v -0.000000 0.610000 -0.420000
v -0.000000 0.610000 -0.420000
v -0.000000 0.610000 -0.420000
v -0.000000 0.610000 -0.420000
v 0.000000 0.610000 -0.420000
v 0.000000 0.610000 -0.420000
v 0.040000 0.680000 -0.540000
v 0.028284 0.684912 -0.512145
v 0.000000 0.686946 -0.500608
v -0.028284 0.684912 -0.512145
v -0.040000 0.680000 -0.540000
v -0.028284 0.675088 -0.567855
v -0.000000 0.673054 -0.579392
v 0.028284 0.675088 -0.567855
v 0.020000 0.817873 -0.564311
v 0.014142 0.820329 -0.550383
v 0.000000 0.821346 -0.544615
v -0.014142 0.820329 -0.550383
v -0.020000 0.817873 -0.564311
v -0.014142 0.815417 -0.578238
v -0.000000 0.814400 -0.584007
v 0.014142 0.815417 -0.578238
v 0.000000 0.680000 -0.540000
v 0.000000 0.817873 -0.564311
v 0.000000 0.685000 -0.620000
v 0.000000 0.685000 -0.620000
v 0.000000 0.685000 -0.620000
v 0.000000 0.685000 -0.620000
v 0.000000 0.685000 -0.620000
v 0.000000 0.685000 -0.620000
v 0.000000 0.685000 -0.620000
v 0.000000 0.685000 -0.620000
v 0.010000 0.682990 -0.620000
v 0.007071 0.682990 -0.612929
v 0.000000 0.682990 -0.610000
v -0.007071 0.682990 -0.612929
v -0.010000 0.682990 -0.620000
v -0.007071 0.682990 -0.627071
v -0.000000 0.682990 -0.630000
v 0.007071 0.682990 -0.627071
v 0.017321 0.677500 -0.620000
v 0.012247 0.677500 -0.607753
v 0.000000 0.677500 -0.602679
v -0.012247 0.677500 -0.607753
v -0.017321 0.677500 -0.620000
v -0.012247 0.677500 -0.632247
v -0.000000 0.677500 -0.637321
v 0.012247 0.677500 -0.632247
v 0.020000 0.670000 -0.620000
v 0.014142 0.670000 -0.605858
v 0.000000 0.670000 -0.600000
v -0.014142 0.670000 -0.605858
v -0.020000 0.670000 -0.620000
v -0.014142 0.670000 -0.634142
v -0.000000 0.670000 -0.640000
v 0.014142 0.670000 -0.634142
v 0.017321 0.662500 -0.620000
v 0.012247 0.662500 -0.607753
v 0.000000 0.662500 -0.602679
v -0.012247 0.662500 -0.607753
v -0.017321 0.662500 -0.620000
v -0.012247 0.662500 -0.632247
v -0.000000 0.662500 -0.637321
v 0.012247 0.662500 -0.632247
v 0.010000 0.657010 -0.620000
v 0.007071 0.657010 -0.612929
v 0.000000 0.657010 -0.610000
v -0.007071 0.657010 -0.612929
v -0.010000 0.657010 -0.620000
v -0.007071 0.657010 -0.627071
v -0.000000 0.657010 -0.630000
v 0.007071 0.657010 -0.627071
v 0.000000 0.655000 -0.620000
v 0.000000 0.655000 -0.620000
v 0.000000 0.655000 -0.620000
v -0.000000 0.655000 -0.620000
v -0.000000 0.655000 -0.620000
v -0.000000 0.655000 -0.620000
v -0.000000 0.655000 -0.620000
v 0.000000 0.655000 -0.620000
v -0.105000 0.780000 -0.435000
v -0.055000 0.780000 -0.435000
v -0.055000 0.780000 -0.405000
v -0.105000 0.780000 -0.405000
v -0.070000 0.860000 -0.420000
v 0.055000 0.780000 -0.435000
v 0.105000 0.780000 -0.435000
v 0.105000 0.780000 -0.405000
v 0.055000 0.780000 -0.405000
v 0.070000 0.860000 -0.420000
v -0.040000 0.748000 -0.480000
v -0.040000 0.748000 -0.480000
v -0.040000 0.748000 -0.480000
v -0.040000 0.748000 -0.480000
v -0.040000 0.748000 -0.480000
v -0.040000 0.748000 -0.480000
v -0.040000 0.748000 -0.480000
v -0.040000 0.748000 -0.480000
v -0.031000 0.745588 -0.480000
v -0.033636 0.745588 -0.474697
v -0.040000 0.745588 -0.472500
v -0.046364 0.745588 -0.474697
v -0.049000 0.745588 -0.480000
v -0.046364 0.745588 -0.485303
v -0.040000 0.745588 -0.487500
v -0.033636 0.745588 -0.485303
v -0.024412 0.739000 -0.480000
v -0.028977 0.739000 -0.470814
v -0.040000 0.739000 -0.467010
v -0.051023 0.739000 -0.470814
v -0.055588 0.739000 -0.480000
v -0.051023 0.739000 -0.489186
v -0.040000 0.739000 -0.492990
v -0.028977 0.739000 -0.489186
v -0.022000 0.730000 -0.480000
v -0.027272 0.730000 -0.469393
v -0.040000 0.730000 -0.465000
v -0.052728 0.730000 -0.469393
v -0.058000 0.730000 -0.480000
v -0.052728 0.730000 -0.490607
v -0.040000 0.730000 -0.495000
v -0.027272 0.730000 -0.490607
v -0.024412 0.721000 -0.480000
v -0.028977 0.721000 -0.470814
v -0.040000 0.721000 -0.467010
v -0.051023 0.721000 -0.470814
v -0.055588 0.721000 -0.480000
v -0.051023 0.721000 -0.489186
v -0.040000 0.721000 -0.492990
v -0.028977 0.721000 -0.489186
v -0.031000 0.714412 -0.480000
v -0.033636 0.714412 -0.474697
v -0.040000 0.714412 -0.472500
v -0.046364 0.714412 -0.474697
v -0.049000 0.714412 -0.480000
v -0.046364 0.714412 -0.485303
v -0.040000 0.714412 -0.487500
v -0.033636 0.714412 -0.485303
v -0.040000 0.712000 -0.480000
v -0.040000 0.712000 -0.480000
v -0.040000 0.712000 -0.480000
v -0.040000 0.712000 -0.480000
v -0.040000 0.712000 -0.480000
v -0.040000 0.712000 -0.480000
v -0.040000 0.712000 -0.480000
v -0.040000 0.712000 -0.480000
v 0.040000 0.748000 -0.480000
v 0.040000 0.748000 -0.480000
v 0.040000 0.748000 -0.480000
v 0.040000 0.748000 -0.480000
v 0.040000 0.748000 -0.480000
v 0.040000 0.748000 -0.480000
v 0.040000 0.748000 -0.480000
v 0.040000 0.748000 -0.480000
v 0.049000 0.745588 -0.480000
v 0.046364 0.745588 -0.474697
v 0.040000 0.745588 -0.472500
v 0.033636 0.745588 -0.474697
v 0.031000 0.745588 -0.480000
v 0.033636 0.745588 -0.485303
v 0.040000 0.745588 -0.487500
v 0.046364 0.745588 -0.485303
v 0.055588 0.739000 -0.480000
v 0.051023 0.739000 -0.470814
v 0.040000 0.739000 -0.467010
v 0.028977 0.739000 -0.470814
v 0.024412 0.739000 -0.480000
v 0.028977 0.739000 -0.489186
v 0.040000 0.739000 -0.492990
v 0.051023 0.739000 -0.489186
v 0.058000 0.730000 -0.480000
v 0.052728 0.730000 -0.469393
v 0.040000 0.730000 -0.465000
v 0.027272 0.730000 -0.469393
v 0.022000 0.730000 -0.480000
v 0.027272 0.730000 -0.490607
v 0.040000 0.730000 -0.495000
v 0.052728 0.730000 -0.490607
v 0.055588 0.721000 -0.480000
v 0.051023 0.721000 -0.470814
v 0.040000 0.721000 -0.467010
v 0.028977 0.721000 -0.470814
v 0.024412 0.721000 -0.480000
v 0.028977 0.721000 -0.489186
v 0.040000 0.721000 -0.492990
v 0.051023 0.721000 -0.489186
v 0.049000 0.714412 -0.480000
v 0.046364 0.714412 -0.474697
v 0.040000 0.714412 -0.472500
v 0.033636 0.714412 -0.474697
v 0.031000 0.714412 -0.480000
v 0.033636 0.714412 -0.485303
v 0.040000 0.714412 -0.487500
v 0.046364 0.714412 -0.485303
v 0.040000 0.712000 -0.480000
v 0.040000 0.712000 -0.480000
v 0.040000 0.712000 -0.480000
v 0.040000 0.712000 -0.480000
v 0.040000 0.712000 -0.480000
v 0.040000 0.712000 -0.480000
v 0.040000 0.712000 -0.480000
v 0.040000 0.712000 -0.480000
v -0.080000 0.380000 -0.180000
v -0.080000 0.380000 -0.180000
v -0.080000 0.380000 -0.180000
v -0.080000 0.380000 -0.180000
v -0.080000 0.380000 -0.180000
v -0.080000 0.380000 -0.180000
v -0.080000 0.380000 -0.180000
v -0.080000 0.380000 -0.180000
v -0.055000 0.371962 -0.180000
v -0.062322 0.371962 -0.162322
v -0.080000 0.371962 -0.155000
v -0.097678 0.371962 -0.162322
v -0.105000 0.371962 -0.180000
v -0.097678 0.371962 -0.197678
v -0.080000 0.371962 -0.205000
v -0.062322 0.371962 -0.197678
v -0.036699 0.350000 -0.180000
v -0.049381 0.350000 -0.149381
v -0.080000 0.350000 -0.136699
v -0.110619 0.350000 -0.149381
v -0.123301 0.350000 -0.180000
v -0.110619 0.350000 -0.210619
v -0.080000 0.350000 -0.223301
v -0.049381 0.350000 -0.210619
v -0.030000 0.320000 -0.180000
v -0.044645 0.320000 -0.144645
v -0.080000 0.320000 -0.130000
v -0.115355 0.320000 -0.144645
v -0.130000 0.320000 -0.180000
v -0.115355 0.320000 -0.215355
v -0.080000 0.320000 -0.230000
v -0.044645 0.320000 -0.215355
v -0.036699 0.290000 -0.180000
v -0.049381 0.290000 -0.149381
v -0.080000 0.290000 -0.136699
v -0.110619 0.290000 -0.149381
v -0.123301 0.290000 -0.180000
v -0.110619 0.290000 -0.210619
v -0.080000 0.290000 -0.223301
v -0.049381 0.290000 -0.210619
v -0.055000 0.268038 -0.180000
v -0.062322 0.268038 -0.162322
v -0.080000 0.268038 -0.155000
v -0.097678 0.268038 -0.162322
v -0.105000 0.268038 -0.180000
v -0.097678 0.268038 -0.197678
v -0.080000 0.268038 -0.205000
v -0.062322 0.268038 -0.197678
v -0.080000 0.260000 -0.180000
v -0.080000 0.260000 -0.180000
v -0.080000 0.260000 -0.180000
v -0.080000 0.260000 -0.180000
v -0.080000 0.260000 -0.180000
v -0.080000 0.260000 -0.180000
v -0.080000 0.260000 -0.180000
v -0.080000 0.260000 -0.180000
v -0.040000 0.100000 -0.180000
v -0.051716 0.100000 -0.151716
v -0.080000 0.100000 -0.140000
v -0.108284 0.100000 -0.151716
v -0.120000 0.100000 -0.180000
v -0.108284 0.100000 -0.208284
v -0.080000 0.100000 -0.220000
v -0.051716 0.100000 -0.208284
v -0.045000 0.320000 -0.180000
v -0.055251 0.320000 -0.155251
v -0.080000 0.320000 -0.145000
v -0.104749 0.320000 -0.155251
v -0.115000 0.320000 -0.180000
v -0.104749 0.320000 -0.204749
v -0.080000 0.320000 -0.215000
v -0.055251 0.320000 -0.204749
v -0.080000 0.100000 -0.180000
v -0.080000 0.320000 -0.180000
v -0.080000 0.065000 -0.180000
v -0.080000 0.065000 -0.180000
v -0.080000 0.065000 -0.180000
v -0.080000 0.065000 -0.180000
v -0.080000 0.065000 -0.180000
v -0.080000 0.065000 -0.180000
v -0.080000 0.065000 -0.180000
v -0.080000 0.065000 -0.180000
v -0.062500 0.061651 -0.180000
v -0.067626 0.061651 -0.165858
v -0.080000 0.061651 -0.160000
v -0.092374 0.061651 -0.165858
v -0.097500 0.061651 -0.180000
v -0.092374 0.061651 -0.194142
v -0.080000 0.061651 -0.200000
v -0.067626 0.061651 -0.194142
v -0.049689 0.052500 -0.180000
v -0.058567 0.052500 -0.155505
v -0.080000 0.052500 -0.145359
v -0.101433 0.052500 -0.155505
v -0.110311 0.052500 -0.180000
v -0.101433 0.052500 -0.204495
v -0.080000 0.052500 -0.214641
v -0.058567 0.052500 -0.204495
v -0.045000 0.040000 -0.180000
v -0.055251 0.040000 -0.151716
v -0.080000 0.040000 -0.140000
v -0.104749 0.040000 -0.151716
v -0.115000 0.040000 -0.180000
v -0.104749 0.040000 -0.208284
v -0.080000 0.040000 -0.220000
v -0.055251 0.040000 -0.208284
v -0.049689 0.027500 -0.180000
v -0.058567 0.027500 -0.155505
v -0.080000 0.027500 -0.145359
v -0.101433 0.027500 -0.155505
v -0.110311 0.027500 -0.180000
v -0.101433 0.027500 -0.204495
v -0.080000 0.027500 -0.214641
v -0.058567 0.027500 -0.204495
v -0.062500 0.018349 -0.180000
v -0.067626 0.018349 -0.165858
v -0.080000 0.018349 -0.160000
v -0.092374 0.018349 -0.165858
v -0.097500 0.018349 -0.180000
v -0.092374 0.018349 -0.194142
v -0.080000 0.018349 -0.200000
v -0.067626 0.018349 -0.194142
v -0.080000 0.015000 -0.180000
v -0.080000 0.015000 -0.180000
v -0.080000 0.015000 -0.180000
v -0.080000 0.015000 -0.180000
v -0.080000 0.015000 -0.180000
v -0.080000 0.015000 -0.180000
v -0.080000 0.015000 -0.180000
v -0.080000 0.015000 -0.180000
v 0.080000 0.380000 -0.180000
v 0.080000 0.380000 -0.180000
v 0.080000 0.380000 -0.180000
v 0.080000 0.380000 -0.180000
v 0.080000 0.380000 -0.180000
v 0.080000 0.380000 -0.180000
v 0.080000 0.380000 -0.180000
v 0.080000 0.380000 -0.180000
v 0.105000 0.371962 -0.180000
v 0.097678 0.371962 -0.162322
v 0.080000 0.371962 -0.155000
v 0.062322 0.371962 -0.162322
v 0.055000 0.371962 -0.180000
v 0.062322 0.371962 -0.197678
v 0.080000 0.371962 -0.205000
v 0.097678 0.371962 -0.197678
v 0.123301 0.350000 -0.180000
v 0.110619 0.350000 -0.149381
v 0.080000 0.350000 -0.136699
v 0.049381 0.350000 -0.149381
v 0.036699 0.350000 -0.180000
v 0.049381 0.350000 -0.210619
v 0.080000 0.350000 -0.223301
v 0.110619 0.350000 -0.210619
v 0.130000 0.320000 -0.180000
v 0.115355 0.320000 -0.144645
v 0.080000 0.320000 -0.130000
v 0.044645 0.320000 -0.144645
v 0.030000 0.320000 -0.180000
v 0.044645 0.320000 -0.215355
v 0.080000 0.320000 -0.230000
v 0.115355 0.320000 -0.215355
v 0.123301 0.290000 -0.180000
v 0.110619 0.290000 -0.149381
v 0.080000 0.290000 -0.136699
v 0.049381 0.290000 -0.149381
v 0.036699 0.290000 -0.180000
v 0.049381 0.290000 -0.210619
v 0.080000 0.290000 -0.223301
v 0.110619 0.290000 -0.210619
v 0.105000 0.268038 -0.180000
v 0.097678 0.268038 -0.162322
v 0.080000 0.268038 -0.155000
v 0.062322 0.268038 -0.162322
v 0.055000 0.268038 -0.180000
v 0.062322 0.268038 -0.197678
v 0.080000 0.268038 -0.205000
v 0.097678 0.268038 -0.197678
v 0.080000 0.260000 -0.180000
v 0.080000 0.260000 -0.180000
v 0.080000 0.260000 -0.180000
v 0.080000 0.260000 -0.180000
v 0.080000 0.260000 -0.180000
v 0.080000 0.260000 -0.180000
v 0.080000 0.260000 -0.180000
v 0.080000 0.260000 -0.180000
v 0.120000 0.100000 -0.180000
v 0.108284 0.100000 -0.151716
v 0.080000 0.100000 -0.140000
v 0.051716 0.100000 -0.151716
v 0.040000 0.100000 -0.180000
v 0.051716 0.100000 -0.208284
v 0.080000 0.100000 -0.220000
v 0.108284 0.100000 -0.208284
v 0.115000 0.320000 -0.180000
v 0.104749 0.320000 -0.155251
v 0.080000 0.320000 -0.145000
v 0.055251 0.320000 -0.155251
v 0.045000 0.320000 -0.180000
v 0.055251 0.320000 -0.204749
v 0.080000 0.320000 -0.215000
v 0.104749 0.320000 -0.204749
v 0.080000 0.100000 -0.180000
v 0.080000 0.320000 -0.180000
v 0.080000 0.065000 -0.180000
v 0.080000 0.065000 -0.180000
v 0.080000 0.065000 -0.180000
v 0.080000 0.065000 -0.180000
v 0.080000 0.065000 -0.180000
v 0.080000 0.065000 -0.180000
v 0.080000 0.065000 -0.180000
v 0.080000 0.065000 -0.180000
v 0.097500 0.061651 -0.180000
v 0.092374 0.061651 -0.165858
v 0.080000 0.061651 -0.160000
v 0.067626 0.061651 -0.165858
v 0.062500 0.061651 -0.180000
v 0.067626 0.061651 -0.194142
v 0.080000 0.061651 -0.200000
v 0.092374 0.061651 -0.194142
v 0.110311 0.052500 -0.180000
v 0.101433 0.052500 -0.155505
v 0.080000 0.052500 -0.145359
v 0.058567 0.052500 -0.155505
v 0.049689 0.052500 -0.180000
v 0.058567 0.052500 -0.204495
v 0.080000 0.052500 -0.214641
v 0.101433 0.052500 -0.204495
v 0.115000 0.040000 -0.180000
v 0.104749 0.040000 -0.151716
v 0.080000 0.040000 -0.140000
v 0.055251 0.040000 -0.151716
v 0.045000 0.040000 -0.180000
v 0.055251 0.040000 -0.208284
v 0.080000 0.040000 -0.220000
v 0.104749 0.040000 -0.208284
v 0.110311 0.027500 -0.180000
v 0.101433 0.027500 -0.155505
v 0.080000 0.027500 -0.145359
v 0.058567 0.027500 -0.155505
v 0.049689 0.027500 -0.180000
v 0.058567 0.027500 -0.204495
v 0.080000 0.027500 -0.214641
v 0.101433 0.027500 -0.204495
v 0.097500 0.018349 -0.180000
v 0.092374 0.018349 -0.165858
v 0.080000 0.018349 -0.160000
v 0.067626 0.018349 -0.165858
v 0.062500 0.018349 -0.180000
v 0.067626 0.018349 -0.194142
v 0.080000 0.018349 -0.200000
v 0.092374 0.018349 -0.194142
v 0.080000 0.015000 -0.180000
v 0.080000 0.015000 -0.180000
v 0.080000 0.015000 -0.180000
v 0.080000 0.015000 -0.180000
v 0.080000 0.015000 -0.180000
v 0.080000 0.015000 -0.180000
v 0.080000 0.015000 -0.180000
v 0.080000 0.015000 -0.180000
v -0.090000 0.430000 0.200000
v -0.090000 0.430000 0.200000
v -0.090000 0.430000 0.200000
v -0.090000 0.430000 0.200000
v -0.090000 0.430000 0.200000
v -0.090000 0.430000 0.200000
v -0.090000 0.430000 0.200000
v -0.090000 0.430000 0.200000
v -0.060000 0.419282 0.200000
v -0.068787 0.419282 0.224749
v -0.090000 0.419282 0.235000
v -0.111213 0.419282 0.224749
v -0.120000 0.419282 0.200000
v -0.111213 0.419282 0.175251
v -0.090000 0.419282 0.165000
v -0.068787 0.419282 0.175251
v -0.038038 0.390000 0.200000
v -0.053258 0.390000 0.242866
v -0.090000 0.390000 0.260622
v -0.126742 0.390000 0.242866
v -0.141962 0.390000 0.200000
v -0.126742 0.390000 0.157134
v -0.090000 0.390000 0.139378
v -0.053258 0.390000 0.157134
v -0.030000 0.350000 0.200000
v -0.047574 0.350000 0.249497
v -0.090000 0.350000 0.270000
v -0.132426 0.350000 0.249497
v -0.150000 0.350000 0.200000
v -0.132426 0.350000 0.150503
v -0.090000 0.350000 0.130000
v -0.047574 0.350000 0.150503
v -0.038038 0.310000 0.200000
v -0.053258 0.310000 0.242866
v -0.090000 0.310000 0.260622
v -0.126742 0.310000 0.242866
v -0.141962 0.310000 0.200000
v -0.126742 0.310000 0.157134
v -0.090000 0.310000 0.139378
v -0.053258 0.310000 0.157134
v -0.060000 0.280718 0.200000
v -0.068787 0.280718 0.224749
v -0.090000 0.280718 0.235000
v -0.111213 0.280718 0.224749
v -0.120000 0.280718 0.200000
v -0.111213 0.280718 0.175251
v -0.090000 0.280718 0.165000
v -0.068787 0.280718 0.175251
v -0.090000 0.270000 0.200000
v -0.090000 0.270000 0.200000
v -0.090000 0.270000 0.200000
v -0.090000 0.270000 0.200000
v -0.090000 0.270000 0.200000
v -0.090000 0.270000 0.200000
v -0.090000 0.270000 0.200000
v -0.090000 0.270000 0.200000
v -0.045000 0.100000 0.220000
v -0.058180 0.100000 0.251820
v -0.090000 0.100000 0.265000
v -0.121820 0.100000 0.251820
v -0.135000 0.100000 0.220000
v -0.121820 0.100000 0.188180
v -0.090000 0.100000 0.175000
v -0.058180 0.100000 0.188180
v -0.050000 0.340000 0.220000
v -0.061716 0.340000 0.248284
v -0.090000 0.340000 0.260000
v -0.118284 0.340000 0.248284
v -0.130000 0.340000 0.220000
v -0.118284 0.340000 0.191716
v -0.090000 0.340000 0.180000
v -0.061716 0.340000 0.191716
v -0.090000 0.100000 0.220000
v -0.090000 0.340000 0.220000
v -0.090000 0.065000 0.220000
v -0.090000 0.065000 0.220000
v -0.090000 0.065000 0.220000
v -0.090000 0.065000 0.220000
v -0.090000 0.065000 0.220000
v -0.090000 0.065000 0.220000
v -0.090000 0.065000 0.220000
v -0.090000 0.065000 0.220000
v -0.072500 0.061651 0.220000
v -0.077626 0.061651 0.234142
v -0.090000 0.061651 0.240000
v -0.102374 0.061651 0.234142
v -0.107500 0.061651 0.220000
v -0.102374 0.061651 0.205858
v -0.090000 0.061651 0.200000
v -0.077626 0.061651 0.205858
v -0.059689 0.052500 0.220000
v -0.068567 0.052500 0.244495
v -0.090000 0.052500 0.254641
v -0.111433 0.052500 0.244495
v -0.120311 0.052500 0.220000
v -0.111433 0.052500 0.195505
v -0.090000 0.052500 0.185359
v -0.068567 0.052500 0.195505
v -0.055000 0.040000 0.220000
v -0.065251 0.040000 0.248284
v -0.090000 0.040000 0.260000
v -0.114749 0.040000 0.248284
v -0.125000 0.040000 0.220000
v -0.114749 0.040000 0.191716
v -0.090000 0.040000 0.180000
v -0.065251 0.040000 0.191716
v -0.059689 0.027500 0.220000
v -0.068567 0.027500 0.244495
v -0.090000 0.027500 0.254641
v -0.111433 0.027500 0.244495
v -0.120311 0.027500 0.220000
v -0.111433 0.027500 0.195505
v -0.090000 0.027500 0.185359
v -0.068567 0.027500 0.195505
v -0.072500 0.018349 0.220000
v -0.077626 0.018349 0.234142
v -0.090000 0.018349 0.240000
v -0.102374 0.018349 0.234142
v -0.107500 0.018349 0.220000
v -0.102374 0.018349 0.205858
v -0.090000 0.018349 0.200000
v -0.077626 0.018349 0.205858
v -0.090000 0.015000 0.220000
v -0.090000 0.015000 0.220000
v -0.090000 0.015000 0.220000
v -0.090000 0.015000 0.220000
v -0.090000 0.015000 0.220000
v -0.090000 0.015000 0.220000
v -0.090000 0.015000 0.220000
v -0.090000 0.015000 0.220000
v 0.090000 0.430000 0.200000
v 0.090000 0.430000 0.200000
v 0.090000 0.430000 0.200000
v 0.090000 0.430000 0.200000
v 0.090000 0.430000 0.200000
v 0.090000 0.430000 0.200000
v 0.090000 0.430000 0.200000
v 0.090000 0.430000 0.200000
v 0.120000 0.419282 0.200000
v 0.111213 0.419282 0.224749
v 0.090000 0.419282 0.235000
v 0.068787 0.419282 0.224749
v 0.060000 0.419282 0.200000
v 0.068787 0.419282 0.175251
v 0.090000 0.419282 0.165000
v 0.111213 0.419282 0.175251
v 0.141962 0.390000 0.200000
v 0.126742 0.390000 0.242866
v 0.090000 0.390000 0.260622
v 0.053258 0.390000 0.242866
v 0.038038 0.390000 0.200000
v 0.053258 0.390000 0.157134
v 0.090000 0.390000 0.139378
v 0.126742 0.390000 0.157134
v 0.150000 0.350000 0.200000
v 0.132426 0.350000 0.249497
v 0.090000 0.350000 0.270000
v 0.047574 0.350000 0.249497
v 0.030000 0.350000 0.200000
v 0.047574 0.350000 0.150503
v 0.090000 0.350000 0.130000
v 0.132426 0.350000 0.150503
v 0.141962 0.310000 0.200000
v 0.126742 0.310000 0.242866
v 0.090000 0.310000 0.260622
v 0.053258 0.310000 0.242866
v 0.038038 0.310000 0.200000
v 0.053258 0.310000 0.157134
v 0.090000 0.310000 0.139378
v 0.126742 0.310000 0.157134
v 0.120000 0.280718 0.200000
v 0.111213 0.280718 0.224749
v 0.090000 0.280718 0.235000
v 0.068787 0.280718 0.224749
v 0.060000 0.280718 0.200000
v 0.068787 0.280718 0.175251
v 0.090000 0.280718 0.165000
v 0.111213 0.280718 0.175251
v 0.090000 0.270000 0.200000
v 0.090000 0.270000 0.200000
v 0.090000 0.270000 0.200000
v 0.090000 0.270000 0.200000
v 0.090000 0.270000 0.200000
v 0.090000 0.270000 0.200000
v 0.090000 0.270000 0.200000
v 0.090000 0.270000 0.200000
v 0.135000 0.100000 0.220000
v 0.121820 0.100000 0.251820
v 0.090000 0.100000 0.265000
v 0.058180 0.100000 0.251820
v 0.045000 0.100000 0.220000
v 0.058180 0.100000 0.188180
v 0.090000 0.100000 0.175000
v 0.121820 0.100000 0.188180
v 0.130000 0.340000 0.220000
v 0.118284 0.340000 0.248284
v 0.090000 0.340000 0.260000
v 0.061716 0.340000 0.248284
v 0.050000 0.340000 0.220000
v 0.061716 0.340000 0.191716
v 0.090000 0.340000 0.180000
v 0.118284 0.340000 0.191716
v 0.090000 0.100000 0.220000
v 0.090000 0.340000 0.220000
v 0.090000 0.065000 0.220000
v 0.090000 0.065000 0.220000
v 0.090000 0.065000 0.220000
v 0.090000 0.065000 0.220000
v 0.090000 0.065000 0.220000
v 0.090000 0.065000 0.220000
v 0.090000 0.065000 0.220000
v 0.090000 0.065000 0.220000
v 0.107500 0.061651 0.220000
v 0.102374 0.061651 0.234142
v 0.090000 0.061651 0.240000
v 0.077626 0.061651 0.234142
v 0.072500 0.061651 0.220000
v 0.077626 0.061651 0.205858
v 0.090000 0.061651 0.200000
v 0.102374 0.061651 0.205858
v 0.120311 0.052500 0.220000
v 0.111433 0.052500 0.244495
v 0.090000 0.052500 0.254641
v 0.068567 0.052500 0.244495
v 0.059689 0.052500 0.220000
v 0.068567 0.052500 0.195505
v 0.090000 0.052500 0.185359
v 0.111433 0.052500 0.195505
v 0.125000 0.040000 0.220000
v 0.114749 0.040000 0.248284
v 0.090000 0.040000 0.260000
v 0.065251 0.040000 0.248284
v 0.055000 0.040000 0.220000
v 0.065251 0.040000 0.191716
v 0.090000 0.040000 0.180000
v 0.114749 0.040000 0.191716
v 0.120311 0.027500 0.220000
v 0.111433 0.027500 0.244495
v 0.090000 0.027500 0.254641
v 0.068567 0.027500 0.244495
v 0.059689 0.027500 0.220000
v 0.068567 0.027500 0.195505
v 0.090000 0.027500 0.185359
v 0.111433 0.027500 0.195505
v 0.107500 0.018349 0.220000
v 0.102374 0.018349 0.234142
v 0.090000 0.018349 0.240000
v 0.077626 0.018349 0.234142
v 0.072500 0.018349 0.220000
v 0.077626 0.018349 0.205858
v 0.090000 0.018349 0.200000
v 0.102374 0.018349 0.205858
v 0.090000 0.015000 0.220000
v 0.090000 0.015000 0.220000
v 0.090000 0.015000 0.220000
v 0.090000 0.015000 0.220000
v 0.090000 0.015000 0.220000
v 0.090000 0.015000 0.220000
v 0.090000 0.015000 0.220000
v 0.090000 0.015000 0.220000
v 0.000000 0.515000 0.420000
v 0.000000 0.515000 0.420000
v 0.000000 0.515000 0.420000
v 0.000000 0.515000 0.420000
v 0.000000 0.515000 0.420000
v 0.000000 0.515000 0.420000
v 0.000000 0.515000 0.420000
v 0.000000 0.515000 0.420000
v 0.017500 0.510311 0.420000
v 0.012374 0.510311 0.432374
v 0.000000 0.510311 0.437500
v -0.012374 0.510311 0.432374
v -0.017500 0.510311 0.420000
v -0.012374 0.510311 0.407626
v -0.000000 0.510311 0.402500
v 0.012374 0.510311 0.407626
v 0.030311 0.497500 0.420000
v 0.021433 0.497500 0.441433
v 0.000000 0.497500 0.450311
v -0.021433 0.497500 0.441433
v -0.030311 0.497500 0.420000
v -0.021433 0.497500 0.398567
v -0.000000 0.497500 0.389689
v 0.021433 0.497500 0.398567
v 0.035000 0.480000 0.420000
v 0.024749 0.480000 0.444749
v 0.000000 0.480000 0.455000
v -0.024749 0.480000 0.444749
v -0.035000 0.480000 0.420000
v -0.024749 0.480000 0.395251
v -0.000000 0.480000 0.385000
v 0.024749 0.480000 0.395251
v 0.030311 0.462500 0.420000
v 0.021433 0.462500 0.441433
v 0.000000 0.462500 0.450311
v -0.021433 0.462500 0.441433
v -0.030311 0.462500 0.420000
v -0.021433 0.462500 0.398567
v -0.000000 0.462500 0.389689
v 0.021433 0.462500 0.398567
v 0.017500 0.449689 0.420000
v 0.012374 0.449689 0.432374
v 0.000000 0.449689 0.437500
v -0.012374 0.449689 0.432374
v -0.017500 0.449689 0.420000
v -0.012374 0.449689 0.407626
v -0.000000 0.449689 0.402500
v 0.012374 0.449689 0.407626
v 0.000000 0.445000 0.420000
v 0.000000 0.445000 0.420000
v 0.000000 0.445000 0.420000
v -0.000000 0.445000 0.420000
v -0.000000 0.445000 0.420000
v -0.000000 0.445000 0.420000
v -0.000000 0.445000 0.420000
v 0.000000 0.445000 0.420000
v 0.000000 0.550000 0.480000
v 0.000000 0.550000 0.480000
v 0.000000 0.550000 0.480000
v 0.000000 0.550000 0.480000
v 0.000000 0.550000 0.480000
v 0.000000 0.550000 0.480000
v 0.000000 0.550000 0.480000
v 0.000000 0.550000 0.480000
v 0.015000 0.545981 0.480000
v 0.010607 0.545981 0.490607
v 0.000000 0.545981 0.495000
v -0.010607 0.545981 0.490607
v -0.015000 0.545981 0.480000
v -0.010607 0.545981 0.469393
v -0.000000 0.545981 0.465000
v 0.010607 0.545981 0.469393
v 0.025981 0.535000 0.480000
v 0.018371 0.535000 0.498371
v 0.000000 0.535000 0.505981
v -0.018371 0.535000 0.498371
v -0.025981 0.535000 0.480000
v -0.018371 0.535000 0.461629
v -0.000000 0.535000 0.454019
v 0.018371 0.535000 0.461629
v 0.030000 0.520000 0.480000
v 0.021213 0.520000 0.501213
v 0.000000 0.520000 0.510000
v -0.021213 0.520000 0.501213
v -0.030000 0.520000 0.480000
v -0.021213 0.520000 0.458787
v -0.000000 0.520000 0.450000
v 0.021213 0.520000 0.458787
v 0.025981 0.505000 0.480000
v 0.018371 0.505000 0.498371
v 0.000000 0.505000 0.505981
v -0.018371 0.505000 0.498371
v -0.025981 0.505000 0.480000
v -0.018371 0.505000 0.461629
v -0.000000 0.505000 0.454019
v 0.018371 0.505000 0.461629
v 0.015000 0.494019 0.480000
v 0.010607 0.494019 0.490607
v 0.000000 0.494019 0.495000
v -0.010607 0.494019 0.490607
v -0.015000 0.494019 0.480000
v -0.010607 0.494019 0.469393
v -0.000000 0.494019 0.465000
v 0.010607 0.494019 0.469393
v 0.000000 0.490000 0.480000
v 0.000000 0.490000 0.480000
v 0.000000 0.490000 0.480000
v -0.000000 0.490000 0.480000
v -0.000000 0.490000 0.480000
v -0.000000 0.490000 0.480000
v -0.000000 0.490000 0.480000
v 0.000000 0.490000 0.480000
v 0.000000 0.575000 0.530000
v 0.000000 0.575000 0.530000
v 0.000000 0.575000 0.530000
v 0.000000 0.575000 0.530000
v 0.000000 0.575000 0.530000
v 0.000000 0.575000 0.530000
v 0.000000 0.575000 0.530000
v 0.000000 0.575000 0.530000
v 0.012500 0.571651 0.530000
v 0.008839 0.571651 0.538839
v 0.000000 0.571651 0.542500
v -0.008839 0.571651 0.538839
v -0.012500 0.571651 0.530000
v -0.008839 0.571651 0.521161
v -0.000000 0.571651 0.517500
v 0.008839 0.571651 0.521161
v 0.021651 0.562500 0.530000
v 0.015309 0.562500 0.545309
v 0.000000 0.562500 0.551651
v -0.015309 0.562500 0.545309
v -0.021651 0.562500 0.530000
v -0.015309 0.562500 0.514691
v -0.000000 0.562500 0.508349
v 0.015309 0.562500 0.514691
v 0.025000 0.550000 0.530000
v 0.017678 0.550000 0.547678
v 0.000000 0.550000 0.555000
v -0.017678 0.550000 0.547678
v -0.025000 0.550000 0.530000
v -0.017678 0.550000 0.512322
v -0.000000 0.550000 0.505000
v 0.017678 0.550000 0.512322
v 0.021651 0.537500 0.530000
v 0.015309 0.537500 0.545309
v 0.000000 0.537500 0.551651
v -0.015309 0.537500 0.545309
v -0.021651 0.537500 0.530000
v -0.015309 0.537500 0.514691
v -0.000000 0.537500 0.508349
v 0.015309 0.537500 0.514691
v 0.012500 0.528349 0.530000
v 0.008839 0.528349 0.538839
v 0.000000 0.528349 0.542500
v -0.008839 0.528349 0.538839
v -0.012500 0.528349 0.530000
v -0.008839 0.528349 0.521161
v -0.000000 0.528349 0.517500
v 0.008839 0.528349 0.521161
v 0.000000 0.525000 0.530000
v 0.000000 0.525000 0.530000
v 0.000000 0.525000 0.530000
v -0.000000 0.525000 0.530000
v -0.000000 0.525000 0.530000
v -0.000000 0.525000 0.530000
v -0.000000 0.525000 0.530000
v 0.000000 0.525000 0.530000
v 0.000000 0.580000 0.570000
v 0.000000 0.580000 0.570000
v 0.000000 0.580000 0.570000
v 0.000000 0.580000 0.570000
v 0.000000 0.580000 0.570000
v 0.000000 0.580000 0.570000
v 0.000000 0.580000 0.570000
v 0.000000 0.580000 0.570000
v 0.010000 0.577321 0.570000
v 0.007071 0.577321 0.577071
v 0.000000 0.577321 0.580000
v -0.007071 0.577321 0.577071
v -0.010000 0.577321 0.570000
v -0.007071 0.577321 0.562929
v -0.000000 0.577321 0.560000
v 0.007071 0.577321 0.562929
v 0.017321 0.570000 0.570000
v 0.012247 0.570000 0.582247
v 0.000000 0.570000 0.587321
v -0.012247 0.570000 0.582247
v -0.017321 0.570000 0.570000
v -0.012247 0.570000 0.557753
v -0.000000 0.570000 0.552679
v 0.012247 0.570000 0.557753
v 0.020000 0.560000 0.570000
v 0.014142 0.560000 0.584142
v 0.000000 0.560000 0.590000
v -0.014142 0.560000 0.584142
v -0.020000 0.560000 0.570000
v -0.014142 0.560000 0.555858
v -0.000000 0.560000 0.550000
v 0.014142 0.560000 0.555858
v 0.017321 0.550000 0.570000
v 0.012247 0.550000 0.582247
v 0.000000 0.550000 0.587321
v -0.012247 0.550000 0.582247
v -0.017321 0.550000 0.570000
v -0.012247 0.550000 0.557753
v -0.000000 0.550000 0.552679
v 0.012247 0.550000 0.557753
v 0.010000 0.542679 0.570000
v 0.007071 0.542679 0.577071
v 0.000000 0.542679 0.580000
v -0.007071 0.542679 0.577071
v -0.010000 0.542679 0.570000
v -0.007071 0.542679 0.562929
v -0.000000 0.542679 0.560000
v 0.007071 0.542679 0.562929
v 0.000000 0.540000 0.570000
v 0.000000 0.540000 0.570000
v 0.000000 0.540000 0.570000
v -0.000000 0.540000 0.570000
v -0.000000 0.540000 0.570000
v -0.000000 0.540000 0.570000
v -0.000000 0.540000 0.570000
v 0.000000 0.540000 0.570000
v 0.102000 0.550000 -0.300000
v 0.096000 0.560392 -0.300000
v 0.084000 0.560392 -0.300000
v 0.078000 0.550000 -0.300000
v 0.084000 0.539608 -0.300000
v 0.096000 0.539608 -0.300000
v 0.094236 0.550000 -0.260966
v 0.088692 0.560392 -0.263262
v 0.077606 0.560392 -0.267855
v 0.072063 0.550000 -0.270151
v 0.077606 0.539608 -0.267855
v 0.088692 0.539608 -0.263262
v 0.072125 0.550000 -0.227875
v 0.067882 0.560392 -0.232118
v 0.059397 0.560392 -0.240603
v 0.055154 0.550000 -0.244846
v 0.059397 0.539608 -0.240603
v 0.067882 0.539608 -0.232118
v 0.039034 0.550000 -0.205764
v 0.036738 0.560392 -0.211308
v 0.032145 0.560392 -0.222394
v 0.029849 0.550000 -0.227937
v 0.032145 0.539608 -0.222394
v 0.036738 0.539608 -0.211308
v 0.000000 0.550000 -0.198000
v 0.000000 0.560392 -0.204000
v 0.000000 0.560392 -0.216000
v 0.000000 0.550000 -0.222000
v 0.000000 0.539608 -0.216000
v 0.000000 0.539608 -0.204000
v -0.039034 0.550000 -0.205764
v -0.036738 0.560392 -0.211308
v -0.032145 0.560392 -0.222394
v -0.029849 0.550000 -0.227937
v -0.032145 0.539608 -0.222394
v -0.036738 0.539608 -0.211308
v -0.072125 0.550000 -0.227875
v -0.067882 0.560392 -0.232118
v -0.059397 0.560392 -0.240603
v -0.055154 0.550000 -0.244846
v -0.059397 0.539608 -0.240603
v -0.067882 0.539608 -0.232118
v -0.094236 0.550000 -0.260966
v -0.088692 0.560392 -0.263262
v -0.077606 0.560392 -0.267855
v -0.072063 0.550000 -0.270151
v -0.077606 0.539608 -0.267855
v -0.088692 0.539608 -0.263262
v -0.102000 0.550000 -0.300000
v -0.096000 0.560392 -0.300000
v -0.084000 0.560392 -0.300000
v -0.078000 0.550000 -0.300000
v -0.084000 0.539608 -0.300000
v -0.096000 0.539608 -0.300000
v -0.094236 0.550000 -0.339034
v -0.088692 0.560392 -0.336738
v -0.077606 0.560392 -0.332145
v -0.072063 0.550000 -0.329849
v -0.077606 0.539608 -0.332145
v -0.088692 0.539608 -0.336738
v -0.072125 0.550000 -0.372125
v -0.067882 0.560392 -0.367882
v -0.059397 0.560392 -0.359397
v -0.055154 0.550000 -0.355154
v -0.059397 0.539608 -0.359397
v -0.067882 0.539608 -0.367882
v -0.039034 0.550000 -0.394236
v -0.036738 0.560392 -0.388692
v -0.032145 0.560392 -0.377606
v -0.029849 0.550000 -0.372063
v -0.032145 0.539608 -0.377606
v -0.036738 0.539608 -0.388692
v -0.000000 0.550000 -0.402000
v -0.000000 0.560392 -0.396000
v -0.000000 0.560392 -0.384000
v -0.000000 0.550000 -0.378000
v -0.000000 0.539608 -0.384000
v -0.000000 0.539608 -0.396000
v 0.039034 0.550000 -0.394236
v 0.036738 0.560392 -0.388692
v 0.032145 0.560392 -0.377606
v 0.029849 0.550000 -0.372063
v 0.032145 0.539608 -0.377606
v 0.036738 0.539608 -0.388692
v 0.072125 0.550000 -0.372125
v 0.067882 0.560392 -0.367882
v 0.059397 0.560392 -0.359397
v 0.055154 0.550000 -0.355154
v 0.059397 0.539608 -0.359397
v 0.067882 0.539608 -0.367882
v 0.094236 0.550000 -0.339034
v 0.088692 0.560392 -0.336738
v 0.077606 0.560392 -0.332145
v 0.072063 0.550000 -0.329849
v 0.077606 0.539608 -0.332145
v 0.088692 0.539608 -0.336738
v -0.050000 0.710000 -0.460000
v -0.050000 0.710000 -0.460000
v -0.050000 0.710000 -0.460000
v -0.050000 0.710000 -0.460000
v -0.050000 0.710000 -0.460000
v -0.050000 0.710000 -0.460000
v -0.032322 0.704142 -0.460000
v -0.041161 0.704142 -0.447753
v -0.058839 0.704142 -0.447753
v -0.067678 0.704142 -0.460000
v -0.058839 0.704142 -0.472247
v -0.041161 0.704142 -0.472247
v -0.025000 0.690000 -0.460000
v -0.037500 0.690000 -0.442679
v -0.062500 0.690000 -0.442679
v -0.075000 0.690000 -0.460000
v -0.062500 0.690000 -0.477321
v -0.037500 0.690000 -0.477321
v -0.032322 0.675858 -0.460000
v -0.041161 0.675858 -0.447753
v -0.058839 0.675858 -0.447753
v -0.067678 0.675858 -0.460000
v -0.058839 0.675858 -0.472247
v -0.041161 0.675858 -0.472247
v -0.050000 0.670000 -0.460000
v -0.050000 0.670000 -0.460000
v -0.050000 0.670000 -0.460000
v -0.050000 0.670000 -0.460000
v -0.050000 0.670000 -0.460000
v -0.050000 0.670000 -0.460000
v 0.050000 0.710000 -0.460000
v 0.050000 0.710000 -0.460000
v 0.050000 0.710000 -0.460000
v 0.050000 0.710000 -0.460000
v 0.050000 0.710000 -0.460000
v 0.050000 0.710000 -0.460000
v 0.067678 0.704142 -0.460000
v 0.058839 0.704142 -0.447753
v 0.041161 0.704142 -0.447753
v 0.032322 0.704142 -0.460000
v 0.041161 0.704142 -0.472247
v 0.058839 0.704142 -0.472247
v 0.075000 0.690000 -0.460000
v 0.062500 0.690000 -0.442679
v 0.037500 0.690000 -0.442679
v 0.025000 0.690000 -0.460000
v 0.037500 0.690000 -0.477321
v 0.062500 0.690000 -0.477321
v 0.067678 0.675858 -0.460000
v 0.058839 0.675858 -0.447753
v 0.041161 0.675858 -0.447753
v 0.032322 0.675858 -0.460000
v 0.041161 0.675858 -0.472247
v 0.058839 0.675858 -0.472247
v 0.050000 0.670000 -0.460000
v 0.050000 0.670000 -0.460000
v 0.050000 0.670000 -0.460000
v 0.050000 0.670000 -0.460000
v 0.050000 0.670000 -0.460000
v 0.050000 0.670000 -0.460000
# 1620 vertices

f 1 2 16 15
f 2 3 17 16
f 3 4 18 17
f 4 5 19 18
f 5 6 20 19
f 6 7 21 20
f 7 8 22 21
f 8 9 23 22
f 9 10 24 23
f 10 11 25 24
f 11 12 26 25
f 12 13 27 26
f 13 14 28 27
f 14 1 15 28
f 15 16 30 29
f 16 17 31 30
f 17 18 32 31
f 18 19 33 32
f 19 20 34 33
f 20 21 35 34
f 21 22 36 35
f 22 23 37 36
f 23 24 38 37
f 24 25 39 38
f 25 26 40 39
f 26 27 41 40
f 27 28 42 41
f 28 15 29 42
f 29 30 44 43
f 30 31 45 44
f 31 32 46 45
f 32 33 47 46
f 33 34 48 47
f 34 35 49 48
f 35 36 50 49
f 36 37 51 50
f 37 38 52 51
f 38 39 53 52
f 39 40 54 53
f 40 41 55 54
f 41 42 56 55
f 42 29 43 56
f 43 44 58 57
f 44 45 59 58
f 45 46 60 59
f 46 47 61 60
f 47 48 62 61
f 48 49 63 62
f 49 50 64 63
f 50 51 65 64
f 51 52 66 65
f 52 53 67 66
f 53 54 68 67
f 54 55 69 68
f 55 56 70 69
f 56 43 57 70
f 57 58 72 71
f 58 59 73 72
f 59 60 74 73
f 60 61 75 74
f 61 62 76 75
f 62 63 77 76
f 63 64 78 77
f 64 65 79 78
f 65 66 80 79
f 66 67 81 80
f 67 68 82 81
f 68 69 83 82
f 69 70 84 83
f 70 57 71 84
f 71 72 86 85
f 72 73 87 86
f 73 74 88 87
f 74 75 89 88
f 75 76 90 89
f 76 77 91 90
f 77 78 92 91
f 78 79 93 92
f 79 80 94 93
f 80 81 95 94
f 81 82 96 95
f 82 83 97 96
f 83 84 98 97
f 84 71 85 98
f 85 86 100 99
f 86 87 101 100
f 87 88 102 101
f 88 89 103 102
f 89 90 104 103
f 90 91 105 104
f 91 92 106 105
f 92 93 107 106
f 93 94 108 107
f 94 95 109 108
f 95 96 110 109
f 96 97 111 110
f 97 98 112 111
f 98 85 99 112
f 99 100 114 113
f 100 101 115 114
f 101 102 116 115
f 102 103 117 116
f 103 104 118 117
f 104 105 119 118
f 105 106 120 119
f 106 107 121 120
f 107 108 122 121
f 108 109 123 122
f 109 110 124 123
f 110 111 125 124
f 111 112 126 125
f 112 99 113 126
f 113 114 128 127
f 114 115 129 128
f 115 116 130 129
f 116 117 131 130
f 117 118 132 131
f 118 119 133 132
f 119 120 134 133
f 120 121 135 134
f 121 122 136 135
f 122 123 137 136
f 123 124 138 137
f 124 125 139 138
f 125 126 140 139
f 126 113 127 140
f 127 128 142 141
f 128 129 143 142
f 129 130 144 143
f 130 131 145 144
f 131 132 146 145
f 132 133 147 146
f 133 134 148 147
f 134 135 149 148
f 135 136 150 149
f 136 137 151 150
f 137 138 152 151
f 138 139 153 152
f 139 140 154 153
f 140 127 141 154
f 155 156 168 167
f 156 157 169 168
f 157 158 170 169
f 158 159 171 170
f 159 160 172 171
f 160 161 173 172
f 161 162 174 173
f 162 163 175 174
f 163 164 176 175
f 164 165 177 176
f 165 166 178 177
f 166 155 167 178
f 167 168 180 179
f 168 169 181 180
f 169 170 182 181
f 170 171 183 182
f 171 172 184 183
f 172 173 185 184
f 173 174 186 185
f 174 175 187 186
f 175 176 188 187
f 176 177 189 188
f 177 178 190 189
f 178 167 179 190
f 179 180 192 191
f 180 181 193 192
f 181 182 194 193
f 182 183 195 194
f 183 184 196 195
f 184 185 197 196
f 185 186 198 197
f 186 187 199 198
f 187 188 200 199
f 188 189 201 200
f 189 190 202 201
f 190 179 191 202
f 191 192 204 203
f 192 193 205 204
f 193 194 206 205
f 194 195 207 206
f 195 196 208 207
f 196 197 209 208
f 197 198 210 209
f 198 199 211 210
f 199 200 212 211
f 200 201 213 212
f 201 202 214 213
f 202 191 203 214
f 203 204 216 215
f 204 205 217 216
f 205 206 218 217
f 206 207 219 218
f 207 208 220 219
f 208 209 221 220
f 209 210 222 221
f 210 211 223 222
f 211 212 224 223
f 212 213 225 224
f 213 214 226 225
f 214 203 215 226
f 215 216 228 227
f 216 217 229 228
f 217 218 230 229
f 218 219 231 230
f 219 220 232 231
f 220 221 233 232
f 221 222 234 233
f 222 223 235 234
f 223 224 236 235
f 224 225 237 236
f 225 226 238 237
f 226 215 227 238
f 227 228 240 239
f 228 229 241 240
f 229 230 242 241
f 230 231 243 242
f 231 232 244 243
f 232 233 245 244
f 233 234 246 245
f 234 235 247 246
f 235 236 248 247
f 236 237 249 248
f 237 238 250 249
f 238 227 239 250
f 239 240 252 251
f 240 241 253 252
f 241 242 254 253
f 242 243 255 254
f 243 244 256 255
f 244 245 257 256
f 245 246 258 257
f 246 247 259 258
f 247 248 260 259
f 248 249 261 260
f 249 250 262 261
f 250 239 251 262
f 263 264 276 275
f 264 265 277 276
f 265 266 278 277
f 266 267 279 278
f 267 268 280 279
f 268 269 281 280
f 269 270 282 281
f 270 271 283 282
f 271 272 284 283
f 272 273 285 284
f 273 274 286 285
f 274 263 275 286
f 275 276 288 287
f 276 277 289 288
f 277 278 290 289
f 278 279 291 290
f 279 280 292 291
f 280 281 293 292
f 281 282 294 293
f 282 283 295 294
f 283 284 296 295
f 284 285 297 296
f 285 286 298 297
f 286 275 287 298
f 287 288 300 299
f 288 289 301 300
f 289 290 302 301
f 290 291 303 302
f 291 292 304 303
f 292 293 305 304
f 293 294 306 305
f 294 295 307 306
f 295 296 308 307
f 296 297 309 308
f 297 298 310 309
f 298 287 299 310
f 299 300 312 311
f 300 301 313 312
f 301 302 314 313
f 302 303 315 314
f 303 304 316 315
f 304 305 317 316
f 305 306 318 317
f 306 307 319 318
f 307 308 320 319
f 308 309 321 320
f 309 310 322 321
f 310 299 311 322
f 311 312 324 323
f 312 313 325 324
f 313 314 326 325
f 314 315 327 326
f 315 316 328 327
f 316 317 329 328
f 317 318 330 329
f 318 319 331 330
f 319 320 332 331
f 320 321 333 332
f 321 322 334 333
f 322 311 323 334
f 323 324 336 335
f 324 325 337 336
f 325 326 338 337
f 326 327 339 338
f 327 328 340 339
f 328 329 341 340
f 329 330 342 341
f 330 331 343 342
f 331 332 344 343
f 332 333 345 344
f 333 334 346 345
f 334 323 335 346
f 335 336 348 347
f 336 337 349 348
f 337 338 350 349
f 338 339 351 350
f 339 340 352 351
f 340 341 353 352
f 341 342 354 353
f 342 343 355 354
f 343 344 356 355
f 344 345 357 356
f 345 346 358 357
f 346 335 347 358
f 347 348 360 359
f 348 349 361 360
f 349 350 362 361
f 350 351 363 362
f 351 352 364 363
f 352 353 365 364
f 353 354 366 365
f 354 355 367 366
f 355 356 368 367
f 356 357 369 368
f 357 358 370 369
f 358 347 359 370
f 371 372 382 381
f 372 373 383 382
f 373 374 384 383
f 374 375 385 384
f 375 376 386 385
f 376 377 387 386
f 377 378 388 387
f 378 379 389 388
f 379 380 390 389
f 380 371 381 390
f 391 372 371
f 392 381 382
f 391 373 372
f 392 382 383
f 391 374 373
f 392 383 384
f 391 375 374
f 392 384 385
f 391 376 375
f 392 385 386
f 391 377 376
f 392 386 387
f 391 378 377
f 392 387 388
f 391 379 378
f 392 388 389
f 391 380 379
f 392 389 390
f 391 371 380
f 392 390 381
f 393 394 406 405
f 394 395 407 406
f 395 396 408 407
f 396 397 409 408
f 397 398 410 409
f 398 399 411 410
f 399 400 412 411
f 400 401 413 412
f 401 402 414 413
f 402 403 415 414
f 403 404 416 415
f 404 393 405 416
f 405 406 418 417
f 406 407 419 418
f 407 408 420 419
f 408 409 421 420
f 409 410 422 421
f 410 411 423 422
f 411 412 424 423
f 412 413 425 424
f 413 414 426 425
f 414 415 427 426
f 415 416 428 427
f 416 405 417 428
f 417 418 430 429
f 418 419 431 430
f 419 420 432 431
f 420 421 433 432
f 421 422 434 433
f 422 423 435 434
f 423 424 436 435
f 424 425 437 436
f 425 426 438 437
f 426 427 439 438
f 427 428 440 439
f 428 417 429 440
f 429 430 442 441
f 430 431 443 442
f 431 432 444 443
f 432 433 445 444
f 433 434 446 445
f 434 435 447 446
f 435 436 448 447
f 436 437 449 448
f 437 438 450 449
f 438 439 451 450
f 439 440 452 451
f 440 429 441 452
f 441 442 454 453
f 442 443 455 454
f 443 444 456 455
f 444 445 457 456
f 445 446 458 457
f 446 447 459 458
f 447 448 460 459
f 448 449 461 460
f 449 450 462 461
f 450 451 463 462
f 451 452 464 463
f 452 441 453 464
f 453 454 466 465
f 454 455 467 466
f 455 456 468 467
f 456 457 469 468
f 457 458 470 469
f 458 459 471 470
f 459 460 472 471
f 460 461 473 472
f 461 462 474 473
f 462 463 475 474
f 463 464 476 475
f 464 453 465 476
f 465 466 478 477
f 466 467 479 478
f 467 468 480 479
f 468 469 481 480
f 469 470 482 481
f 470 471 483 482
f 471 472 484 483
f 472 473 485 484
f 473 474 486 485
f 474 475 487 486
f 475 476 488 487
f 476 465 477 488
f 477 478 490 489
f 478 479 491 490
f 479 480 492 491
f 480 481 493 492
f 481 482 494 493
f 482 483 495 494
f 483 484 496 495
f 484 485 497 496
f 485 486 498 497
f 486 487 499 498
f 487 488 500 499
f 488 477 489 500
f 489 490 502 501
f 490 491 503 502
f 491 492 504 503
f 492 493 505 504
f 493 494 506 505
f 494 495 507 506
f 495 496 508 507
f 496 497 509 508
f 497 498 510 509
f 498 499 511 510
f 499 500 512 511
f 500 489 501 512
f 501 502 514 513
f 502 503 515 514
f 503 504 516 515
f 504 505 517 516
f 505 506 518 517
f 506 507 519 518
f 507 508 520 519
f 508 509 521 520
f 509 510 522 521
f 510 511 523 522
f 511 512 524 523
f 512 501 513 524
f 525 526 534 533
f 526 527 535 534
f 527 528 536 535
f 528 529 537 536
f 529 530 538 537
f 530 531 539 538
f 531 532 540 539
f 532 525 533 540
f 541 526 525
f 542 533 534
f 541 527 526
f 542 534 535
f 541 528 527
f 542 535 536
f 541 529 528
f 542 536 537
f 541 530 529
f 542 537 538
f 541 531 530
f 542 538 539
f 541 532 531
f 542 539 540
f 541 525 532
f 542 540 533
f 543 544 552 551
f 544 545 553 552
f 545 546 554 553
f 546 547 555 554
f 547 548 556 555
f 548 549 557 556
f 549 550 558 557
f 550 543 551 558
f 551 552 560 559
f 552 553 561 560
f 553 554 562 561
f 554 555 563 562
f 555 556 564 563
f 556 557 565 564
f 557 558 566 565
f 558 551 559 566
f 559 560 568 567
f 560 561 569 568
f 561 562 570 569
f 562 563 571 570
f 563 564 572 571
f 564 565 573 572
f 565 566 574 573
f 566 559 567 574
f 567 568 576 575
f 568 569 577 576
f 569 570 578 577
f 570 571 579 578
f 571 572 580 579
f 572 573 581 580
f 573 574 582 581
f 574 567 575 582
f 575 576 584 583
f 576 577 585 584
f 577 578 586 585
f 578 579 587 586
f 579 580 588 587
f 580 581 589 588
f 581 582 590 589
f 582 575 583 590
f 583 584 592 591
f 584 585 593 592
f 585 586 594 593
f 586 587 595 594
f 587 588 596 595
f 588 589 597 596
f 589 590 598 597
f 590 583 591 598
f 599 600 601 602
f 599 603 600
f 600 603 601
f 601 603 602
f 602 603 599
f 604 605 606 607
f 604 608 605
f 605 608 606
f 606 608 607
f 607 608 604
f 609 610 618 617
f 610 611 619 618
f 611 612 620 619
f 612 613 621 620
f 613 614 622 621
f 614 615 623 622
f 615 616 624 623
f 616 609 617 624
f 617 618 626 625
f 618 619 627 626
f 619 620 628 627
f 620 621 629 628
f 621 622 630 629
f 622 623 631 630
f 623 624 632 631
f 624 617 625 632
f 625 626 634 633
f 626 627 635 634
f 627 628 636 635
f 628 629 637 636
f 629 630 638 637
f 630 631 639 638
f 631 632 640 639
f 632 625 633 640
f 633 634 642 641
f 634 635 643 642
f 635 636 644 643
f 636 637 645 644
f 637 638 646 645
f 638 639 647 646
f 639 640 648 647
f 640 633 641 648
f 641 642 650 649
f 642 643 651 650
f 643 644 652 651
f 644 645 653 652
f 645 646 654 653
f 646 647 655 654
f 647 648 656 655
f 648 641 649 656
f 649 650 658 657
f 650 651 659 658
f 651 652 660 659
f 652 653 661 660
f 653 654 662 661
f 654 655 663 662
f 655 656 664 663
f 656 649 657 664
f 665 666 674 673
f 666 667 675 674
f 667 668 676 675
f 668 669 677 676
f 669 670 678 677
f 670 671 679 678
f 671 672 680 679
f 672 665 673 680
f 673 674 682 681
f 674 675 683 682
f 675 676 684 683
f 676 677 685 684
f 677 678 686 685
f 678 679 687 686
f 679 680 688 687
f 680 673 681 688
f 681 682 690 689
f 682 683 691 690
f 683 684 692 691
f 684 685 693 692
f 685 686 694 693
f 686 687 695 694
f 687 688 696 695
f 688 681 689 696
f 689 690 698 697
f 690 691 699 698
f 691 692 700 699
f 692 693 701 700
f 693 694 702 701
f 694 695 703 702
f 695 696 704 703
f 696 689 697 704
f 697 698 706 705
f 698 699 707 706
f 699 700 708 707
f 700 701 709 708
f 701 702 710 709
f 702 703 711 710
f 703 704 712 711
f 704 697 705 712
f 705 706 714 713
f 706 707 715 714
f 707 708 716 715
f 708 709 717 716
f 709 710 718 717
f 710 711 719 718
f 711 712 720 719
f 712 705 713 720
f 721 722 730 729
f 722 723 731 730
f 723 724 732 731
f 724 725 733 732
f 725 726 734 733
f 726 727 735 734
f 727 728 736 735
f 728 721 729 736
f 729 730 738 737
f 730 731 739 738
f 731 732 740 739
f 732 733 741 740
f 733 734 742 741
f 734 735 743 742
f 735 736 744 743
f 736 729 737 744
f 737 738 746 745
f 738 739 747 746
f 739 740 748 747
f 740 741 749 748
f 741 742 750 749
f 742 743 751 750
f 743 744 752 751
f 744 737 745 752
f 745 746 754 753
f 746 747 755 754
f 747 748 756 755
f 748 749 757 756
f 749 750 758 757
f 750 751 759 758
f 751 752 760 759
f 752 745 753 760
f 753 754 762 761
f 754 755 763 762
f 755 756 764 763
f 756 757 765 764
f 757 758 766 765
f 758 759 767 766
f 759 760 768 767
f 760 753 761 768
f 761 762 770 769
f 762 763 771 770
f 763 764 772 771
f 764 765 773 772
f 765 766 774 773
f 766 767 775 774
f 767 768 776 775
f 768 761 769 776
f 777 778 786 785
f 778 779 787 786
f 779 780 788 787
f 780 781 789 788
f 781 782 790 789
f 782 783 791 790
f 783 784 792 791
f 784 777 785 792
f 793 778 777
f 794 785 786
f 793 779 778
f 794 786 787
f 793 780 779
f 794 787 788
f 793 781 780
f 794 788 789
f 793 782 781
f 794 789 790
f 793 783 782
f 794 790 791
f 793 784 783
f 794 791 792
f 793 777 784
f 794 792 785
f 795 796 804 803
f 796 797 805 804
f 797 798 806 805
f 798 799 807 806
f 799 800 808 807
f 800 801 809 808
f 801 802 810 809
f 802 795 803 810
f 803 804 812 811
f 804 805 813 812
f 805 806 814 813
f 806 807 815 814
f 807 808 816 815
f 808 809 817 816
f 809 810 818 817
f 810 803 811 818
f 811 812 820 819
f 812 813 821 820
f 813 814 822 821
f 814 815 823 822
f 815 816 824 823
f 816 817 825 824
f 817 818 826 825
f 818 811 819 826
f 819 820 828 827
f 820 821 829 828
f 821 822 830 829
f 822 823 831 830
f 823 824 832 831
f 824 825 833 832
f 825 826 834 833
f 826 819 827 834
f 827 828 836 835
f 828 829 837 836
f 829 830 838 837
f 830 831 839 838
f 831 832 840 839
f 832 833 841 840
f 833 834 842 841
f 834 827 835 842
f 835 836 844 843
f 836 837 845 844
f 837 838 846 845
f 838 839 847 846
f 839 840 848 847
f 840 841 849 848
f 841 842 850 849
f 842 835 843 850
f 851 852 860 859
f 852 853 861 860
f 853 854 862 861
f 854 855 863 862
f 855 856 864 863
f 856 857 865 864
f 857 858 866 865
f 858 851 859 866
f 859 860 868 867
f 860 861 869 868
f 861 862 870 869
f 862 863 871 870
f 863 864 872 871
f 864 865 873 872
f 865 866 874 873
f 866 859 867 874
f 867 868 876 875
f 868 869 877 876
f 869 870 878 877
f 870 871 879 878
f 871 872 880 879
f 872 873 881 880
f 873 874 882 881
f 874 867 875 882
f 875 876 884 883
f 876 877 885 884
f 877 878 886 885
f 878 879 887 886
f 879 880 888 887
f 880 881 889 888
f 881 882 890 889
f 882 875 883 890
f 883 884 892 891
f 884 885 893 892
f 885 886 894 893
f 886 887 895 894
f 887 888 896 895
f 888 889 897 896
f 889 890 898 897
f 890 883 891 898
f 891 892 900 899
f 892 893 901 900
f 893 894 902 901
f 894 895 903 902
f 895 896 904 903
f 896 897 905 904
f 897 898 906 905
f 898 891 899 906
f 907 908 916 915
f 908 909 917 916
f 909 910 918 917
f 910 911 919 918
f 911 912 920 919
f 912 913 921 920
f 913 914 922 921
f 914 907 915 922
f 923 908 907
f 924 915 916
f 923 909 908
f 924 916 917
f 923 910 909
f 924 917 918
f 923 911 910
f 924 918 919
f 923 912 911
f 924 919 920
f 923 913 912
f 924 920 921
f 923 914 913
f 924 921 922
f 923 907 914
f 924 922 915
f 925 926 934 933
f 926 927 935 934
f 927 928 936 935
f 928 929 937 936
f 929 930 938 937
f 930 931 939 938
f 931 932 940 939
f 932 925 933 940
f 933 934 942 941
f 934 935 943 942
f 935 936 944 943
f 936 937 945 944
f 937 938 946 945
f 938 939 947 946
f 939 940 948 947
f 940 933 941 948
f 941 942 950 949
f 942 943 951 950
f 943 944 952 951
f 944 945 953 952
f 945 946 954 953
f 946 947 955 954
f 947 948 956 955
f 948 941 949 956
f 949 950 958 957
f 950 951 959 958
f 951 952 960 959
f 952 953 961 960
f 953 954 962 961
f 954 955 963 962
f 955 956 964 963
f 956 949 957 964
f 957 958 966 965
f 958 959 967 966
f 959 960 968 967
f 960 961 969 968
f 961 962 970 969
f 962 963 971 970
f 963 964 972 971
f 964 957 965 972
f 965 966 974 973
f 966 967 975 974
f 967 968 976 975
f 968 969 977 976
f 969 970 978 977
f 970 971 979 978
f 971 972 980 979
f 972 965 973 980
f 981 982 990 989
f 982 983 991 990
f 983 984 992 991
f 984 985 993 992
f 985 986 994 993
f 986 987 995 994
f 987 988 996 995
f 988 981 989 996
f 989 990 998 997
f 990 991 999 998
f 991 992 1000 999
f 992 993 1001 1000
f 993 994 1002 1001
f 994 995 1003 1002
f 995 996 1004 1003
f 996 989 997 1004
f 997 998 1006 1005
f 998 999 1007 1006
f 999 1000 1008 1007
f 1000 1001 1009 1008
f 1001 1002 1010 1009
f 1002 1003 1011 1010
f 1003 1004 1012 1011
f 1004 997 1005 1012
f 1005 1006 1014 1013
f 1006 1007 1015 1014
f 1007 1008 1016 1015
f 1008 1009 1017 1016
f 1009 1010 1018 1017
f 1010 1011 1019 1018
f 1011 1012 1020 1019
f 1012 1005 1013 1020
f 1013 1014 1022 1021
f 1014 1015 1023 1022
f 1015 1016 1024 1023
f 1016 1017 1025 1024
f 1017 1018 1026 1025
f 1018 1019 1027 1026
f 1019 1020 1028 1027
f 1020 1013 1021 1028
f 1021 1022 1030 1029
f 1022 1023 1031 1030
f 1023 1024 1032 1031
f 1024 1025 1033 1032
f 1025 1026 1034 1033
f 1026 1027 1035 1034
f 1027 1028 1036 1035
f 1028 1021 1029 1036
f 1037 1038 1046 1045
f 1038 1039 1047 1046
f 1039 1040 1048 1047
f 1040 1041 1049 1048
f 1041 1042 1050 1049
f 1042 1043 1051 1050
f 1043 1044 1052 1051
f 1044 1037 1045 1052
f 1053 1038 1037
f 1054 1045 1046
f 1053 1039 1038
f 1054 1046 1047
f 1053 1040 1039
f 1054 1047 1048
f 1053 1041 1040
f 1054 1048 1049
f 1053 1042 1041
f 1054 1049 1050
f 1053 1043 1042
f 1054 1050 1051
f 1053 1044 1043
f 1054 1051 1052
f 1053 1037 1044
f 1054 1052 1045
f 1055 1056 1064 1063
f 1056 1057 1065 1064
f 1057 1058 1066 1065
f 1058 1059 1067 1066
f 1059 1060 1068 1067
f 1060 1061 1069 1068
f 1061 1062 1070 1069
f 1062 1055 1063 1070
f 1063 1064 1072 1071
f 1064 1065 1073 1072
f 1065 1066 1074 1073
f 1066 1067 1075 1074
f 1067 1068 1076 1075
f 1068 1069 1077 1076
f 1069 1070 1078 1077
f 1070 1063 1071 1078
f 1071 1072 1080 1079
f 1072 1073 1081 1080
f 1073 1074 1082 1081
f 1074 1075 1083 1082
f 1075 1076 1084 1083
f 1076 1077 1085 1084
f 1077 1078 1086 1085
f 1078 1071 1079 1086
f 1079 1080 1088 1087
f 1080 1081 1089 1088
f 1081 1082 1090 1089
f 1082 1083 1091 1090
f 1083 1084 1092 1091
f 1084 1085 1093 1092
f 1085 1086 1094 1093
f 1086 1079 1087 1094
f 1087 1088 1096 1095
f 1088 1089 1097 1096
f 1089 1090 1098 1097
f 1090 1091 1099 1098
f 1091 1092 1100 1099
f 1092 1093 1101 1100
f 1093 1094 1102 1101
f 1094 1087 1095 1102
f 1095 1096 1104 1103
f 1096 1097 1105 1104
f 1097 1098 1106 1105
f 1098 1099 1107 1106
f 1099 1100 1108 1107
f 1100 1101 1109 1108
f 1101 1102 1110 1109
f 1102 1095 1103 1110
f 1111 1112 1120 1119
f 1112 1113 1121 1120
f 1113 1114 1122 1121
f 1114 1115 1123 1122
f 1115 1116 1124 1123
f 1116 1117 1125 1124
f 1117 1118 1126 1125
f 1118 1111 1119 1126
f 1119 1120 1128 1127
f 1120 1121 1129 1128
f 1121 1122 1130 1129
f 1122 1123 1131 1130
f 1123 1124 1132 1131
f 1124 1125 1133 1132
f 1125 1126 1134 1133
f 1126 1119 1127 1134
f 1127 1128 1136 1135
f 1128 1129 1137 1136
f 1129 1130 1138 1137
f 1130 1131 1139 1138
f 1131 1132 1140 1139
f 1132 1133 1141 1140
f 1133 1134 1142 1141
f 1134 1127 1135 1142
f 1135 1136 1144 1143
f 1136 1137 1145 1144
f 1137 1138 1146 1145
f 1138 1139 1147 1146
f 1139 1140 1148 1147
f 1140 1141 1149 1148
f 1141 1142 1150 1149
f 1142 1135 1143 1150
f 1143 1144 1152 1151
f 1144 1145 1153 1152
f 1145 1146 1154 1153
f 1146 1147 1155 1154
f 1147 1148 1156 1155
f 1148 1149 1157 1156
f 1149 1150 1158 1157
f 1150 1143 1151 1158
f 1151 1152 1160 1159
f 1152 1153 1161 1160
f 1153 1154 1162 1161
f 1154 1155 1163 1162
f 1155 1156 1164 1163
f 1156 1157 1165 1164
f 1157 1158 1166 1165
f 1158 1151 1159 1166
f 1167 1168 1176 1175
f 1168 1169 1177 1176
f 1169 1170 1178 1177
f 1170 1171 1179 1178
f 1171 1172 1180 1179
f 1172 1173 1181 1180
f 1173 1174 1182 1181
f 1174 1167 1175 1182
f 1183 1168 1167
f 1184 1175 1176
f 1183 1169 1168
f 1184 1176 1177
f 1183 1170 1169
f 1184 1177 1178
f 1183 1171 1170
f 1184 1178 1179
f 1183 1172 1171
f 1184 1179 1180
f 1183 1173 1172
f 1184 1180 1181
f 1183 1174 1173
f 1184 1181 1182
f 1183 1167 1174
f 1184 1182 1175
f 1185 1186 1194 1193
f 1186 1187 1195 1194
f 1187 1188 1196 1195
f 1188 1189 1197 1196
f 1189 1190 1198 1197
f 1190 1191 1199 1198
f 1191 1192 1200 1199
f 1192 1185 1193 1200
f 1193 1194 1202 1201
f 1194 1195 1203 1202
f 1195 1196 1204 1203
f 1196 1197 1205 1204
f 1197 1198 1206 1205
f 1198 1199 1207 1206
f 1199 1200 1208 1207
f 1200 1193 1201 1208
f 1201 1202 1210 1209
f 1202 1203 1211 1210
f 1203 1204 1212 1211
f 1204 1205 1213 1212
f 1205 1206 1214 1213
f 1206 1207 1215 1214
f 1207 1208 1216 1215
f 1208 1201 1209 1216
f 1209 1210 1218 1217
f 1210 1211 1219 1218
f 1211 1212 1220 1219
f 1212 1213 1221 1220
f 1213 1214 1222 1221
f 1214 1215 1223 1222
f 1215 1216 1224 1223
f 1216 1209 1217 1224
f 1217 1218 1226 1225
f 1218 1219 1227 1226
f 1219 1220 1228 1227
f 1220 1221 1229 1228
f 1221 1222 1230 1229
f 1222 1223 1231 1230
f 1223 1224 1232 1231
f 1224 1217 1225 1232
f 1225 1226 1234 1233
f 1226 1227 1235 1234
f 1227 1228 1236 1235
f 1228 1229 1237 1236
f 1229 1230 1238 1237
f 1230 1231 1239 1238
f 1231 1232 1240 1239
f 1232 1225 1233 1240
f 1241 1242 1250 1249
f 1242 1243 1251 1250
f 1243 1244 1252 1251
f 1244 1245 1253 1252
f 1245 1246 1254 1253
f 1246 1247 1255 1254
f 1247 1248 1256 1255
f 1248 1241 1249 1256
f 1249 1250 1258 1257
f 1250 1251 1259 1258
f 1251 1252 1260 1259
f 1252 1253 1261 1260
f 1253 1254 1262 1261
f 1254 1255 1263 1262
f 1255 1256 1264 1263
f 1256 1249 1257 1264
f 1257 1258 1266 1265
f 1258 1259 1267 1266
f 1259 1260 1268 1267
f 1260 1261 1269 1268
f 1261 1262 1270 1269
f 1262 1263 1271 1270
f 1263 1264 1272 1271
f 1264 1257 1265 1272
f 1265 1266 1274 1273
f 1266 1267 1275 1274
f 1267 1268 1276 1275
f 1268 1269 1277 1276
f 1269 1270 1278 1277
f 1270 1271 1279 1278
f 1271 1272 1280 1279
f 1272 1265 1273 1280
f 1273 1274 1282 1281
f 1274 1275 1283 1282
f 1275 1276 1284 1283
f 1276 1277 1285 1284
f 1277 1278 1286 1285
f 1278 1279 1287 1286
f 1279 1280 1288 1287
f 1280 1273 1281 1288
f 1281 1282 1290 1289
f 1282 1283 1291 1290
f 1283 1284 1292 1291
f 1284 1285 1293 1292
f 1285 1286 1294 1293
f 1286 1287 1295 1294
f 1287 1288 1296 1295
f 1288 1281 1289 1296
f 1297 1298 1306 1305
f 1298 1299 1307 1306
f 1299 1300 1308 1307
f 1300 1301 1309 1308
f 1301 1302 1310 1309
f 1302 1303 1311 1310
f 1303 1304 1312 1311
f 1304 1297 1305 1312
f 1305 1306 1314 1313
f 1306 1307 1315 1314
f 1307 1308 1316 1315
f 1308 1309 1317 1316
f 1309 1310 1318 1317
f 1310 1311 1319 1318
f 1311 1312 1320 1319
f 1312 1305 1313 1320
f 1313 1314 1322 1321
f 1314 1315 1323 1322
f 1315 1316 1324 1323
f 1316 1317 1325 1324
f 1317 1318 1326 1325
f 1318 1319 1327 1326
f 1319 1320 1328 1327
f 1320 1313 1321 1328
f 1321 1322 1330 1329
f 1322 1323 1331 1330
f 1323 1324 1332 1331
f 1324 1325 1333 1332
f 1325 1326 1334 1333
f 1326 1327 1335 1334
f 1327 1328 1336 1335
f 1328 1321 1329 1336
f 1329 1330 1338 1337
f 1330 1331 1339 1338
f 1331 1332 1340 1339
f 1332 1333 1341 1340
f 1333 1334 1342 1341
f 1334 1335 1343 1342
f 1335 1336 1344 1343
f 1336 1329 1337 1344
f 1337 1338 1346 1345
f 1338 1339 1347 1346
f 1339 1340 1348 1347
f 1340 1341 1349 1348
f 1341 1342 1350 1349
f 1342 1343 1351 1350
f 1343 1344 1352 1351
f 1344 1337 1345 1352
f 1353 1354 1362 1361
f 1354 1355 1363 1362
f 1355 1356 1364 1363
f 1356 1357 1365 1364
f 1357 1358 1366 1365
f 1358 1359 1367 1366
f 1359 1360 1368 1367
f 1360 1353 1361 1368
f 1361 1362 1370 1369
f 1362 1363 1371 1370
f 1363 1364 1372 1371
f 1364 1365 1373 1372
f 1365 1366 1374 1373
f 1366 1367 1375 1374
f 1367 1368 1376 1375
f 1368 1361 1369 1376
f 1369 1370 1378 1377
f 1370 1371 1379 1378
f 1371 1372 1380 1379
f 1372 1373 1381 1380
f 1373 1374 1382 1381
f 1374 1375 1383 1382
f 1375 1376 1384 1383
f 1376 1369 1377 1384
f 1377 1378 1386 1385
f 1378 1379 1387 1386
f 1379 1380 1388 1387
f 1380 1381 1389 1388
f 1381 1382 1390 1389
f 1382 1383 1391 1390
f 1383 1384 1392 1391
f 1384 1377 1385 1392
f 1385 1386 1394 1393
f 1386 1387 1395 1394
f 1387 1388 1396 1395
f 1388 1389 1397 1396
f 1389 1390 1398 1397
f 1390 1391 1399 1398
f 1391 1392 1400 1399
f 1392 1385 1393 1400
f 1393 1394 1402 1401
f 1394 1395 1403 1402
f 1395 1396 1404 1403
f 1396 1397 1405 1404
f 1397 1398 1406 1405
f 1398 1399 1407 1406
f 1399 1400 1408 1407
f 1400 1393 1401 1408
f 1409 1410 1418 1417
f 1410 1411 1419 1418
f 1411 1412 1420 1419
f 1412 1413 1421 1420
f 1413 1414 1422 1421
f 1414 1415 1423 1422
f 1415 1416 1424 1423
f 1416 1409 1417 1424
f 1417 1418 1426 1425
f 1418 1419 1427 1426
f 1419 1420 1428 1427
f 1420 1421 1429 1428
f 1421 1422 1430 1429
f 1422 1423 1431 1430
f 1423 1424 1432 1431
f 1424 1417 1425 1432
f 1425 1426 1434 1433
f 1426 1427 1435 1434
f 1427 1428 1436 1435
f 1428 1429 1437 1436
f 1429 1430 1438 1437
f 1430 1431 1439 1438
f 1431 1432 1440 1439
f 1432 1425 1433 1440
f 1433 1434 1442 1441
f 1434 1435 1443 1442
f 1435 1436 1444 1443
f 1436 1437 1445 1444
f 1437 1438 1446 1445
f 1438 1439 1447 1446
f 1439 1440 1448 1447
f 1440 1433 1441 1448
f 1441 1442 1450 1449
f 1442 1443 1451 1450
f 1443 1444 1452 1451
f 1444 1445 1453 1452
f 1445 1446 1454 1453
f 1446 1447 1455 1454
f 1447 1448 1456 1455
f 1448 1441 1449 1456
f 1449 1450 1458 1457
f 1450 1451 1459 1458
f 1451 1452 1460 1459
f 1452 1453 1461 1460
f 1453 1454 1462 1461
f 1454 1455 1463 1462
f 1455 1456 1464 1463
f 1456 1449 1457 1464
f 1465 1466 1472 1471
f 1466 1467 1473 1472
f 1467 1468 1474 1473
f 1468 1469 1475 1474
f 1469 1470 1476 1475
f 1470 1465 1471 1476
f 1471 1472 1478 1477
f 1472 1473 1479 1478
f 1473 1474 1480 1479
f 1474 1475 1481 1480
f 1475 1476 1482 1481
f 1476 1471 1477 1482
f 1477 1478 1484 1483
f 1478 1479 1485 1484
f 1479 1480 1486 1485
f 1480 1481 1487 1486
f 1481 1482 1488 1487
f 1482 1477 1483 1488
f 1483 1484 1490 1489
f 1484 1485 1491 1490
f 1485 1486 1492 1491
f 1486 1487 1493 1492
f 1487 1488 1494 1493
f 1488 1483 1489 1494
f 1489 1490 1496 1495
f 1490 1491 1497 1496
f 1491 1492 1498 1497
f 1492 1493 1499 1498
f 1493 1494 1500 1499
f 1494 1489 1495 1500
f 1495 1496 1502 1501
f 1496 1497 1503 1502
f 1497 1498 1504 1503
f 1498 1499 1505 1504
f 1499 1500 1506 1505
f 1500 1495 1501 1506
f 1501 1502 1508 1507
f 1502 1503 1509 1508
f 1503 1504 1510 1509
f 1504 1505 1511 1510
f 1505 1506 1512 1511
f 1506 1501 1507 1512
f 1507 1508 1514 1513
f 1508 1509 1515 1514
f 1509 1510 1516 1515
f 1510 1511 1517 1516
f 1511 1512 1518 1517
f 1512 1507 1513 1518
f 1513 1514 1520 1519
f 1514 1515 1521 1520
f 1515 1516 1522 1521
f 1516 1517 1523 1522
f 1517 1518 1524 1523
f 1518 1513 1519 1524
f 1519 1520 1526 1525
f 1520 1521 1527 1526
f 1521 1522 1528 1527
f 1522 1523 1529 1528
f 1523 1524 1530 1529
f 1524 1519 1525 1530
f 1525 1526 1532 1531
f 1526 1527 1533 1532
f 1527 1528 1534 1533
f 1528 1529 1535 1534
f 1529 1530 1536 1535
f 1530 1525 1531 1536
f 1531 1532 1538 1537
f 1532 1533 1539 1538
f 1533 1534 1540 1539
f 1534 1535 1541 1540
f 1535 1536 1542 1541
f 1536 1531 1537 1542
f 1537 1538 1544 1543
f 1538 1539 1545 1544
f 1539 1540 1546 1545
f 1540 1541 1547 1546
f 1541 1542 1548 1547
f 1542 1537 1543 1548
f 1543 1544 1550 1549
f 1544 1545 1551 1550
f 1545 1546 1552 1551
f 1546 1547 1553 1552
f 1547 1548 1554 1553
f 1548 1543 1549 1554
f 1549 1550 1556 1555
f 1550 1551 1557 1556
f 1551 1552 1558 1557
f 1552 1553 1559 1558
f 1553 1554 1560 1559
f 1554 1549 1555 1560
f 1555 1556 1466 1465
f 1556 1557 1467 1466
f 1557 1558 1468 1467
f 1558 1559 1469 1468
f 1559 1560 1470 1469
f 1560 1555 1465 1470
f 1561 1562 1568 1567
f 1562 1563 1569 1568
f 1563 1564 1570 1569
f 1564 1565 1571 1570
f 1565 1566 1572 1571
f 1566 1561 1567 1572
f 1567 1568 1574 1573
f 1568 1569 1575 1574
f 1569 1570 1576 1575
f 1570 1571 1577 1576
f 1571 1572 1578 1577
f 1572 1567 1573 1578
f 1573 1574 1580 1579
f 1574 1575 1581 1580
f 1575 1576 1582 1581
f 1576 1577 1583 1582
f 1577 1578 1584 1583
f 1578 1573 1579 1584
f 1579 1580 1586 1585
f 1580 1581 1587 1586
f 1581 1582 1588 1587
f 1582 1583 1589 1588
f 1583 1584 1590 1589
f 1584 1579 1585 1590
f 1591 1592 1598 1597
f 1592 1593 1599 1598
f 1593 1594 1600 1599
f 1594 1595 1601 1600
f 1595 1596 1602 1601
f 1596 1591 1597 1602
f 1597 1598 1604 1603
f 1598 1599 1605 1604
f 1599 1600 1606 1605
f 1600 1601 1607 1606
f 1601 1602 1608 1607
f 1602 1597 1603 1608
f 1603 1604 1610 1609
f 1604 1605 1611 1610
f 1605 1606 1612 1611
f 1606 1607 1613 1612
f 1607 1608 1614 1613
f 1608 1603 1609 1614
f 1609 1610 1616 1615
f 1610 1611 1617 1616
f 1611 1612 1618 1617
f 1612 1613 1619 1618
f 1613 1614 1620 1619
f 1614 1609 1615 1620
