# Placeholder Low-Poly Dog (Malinois)
# Generated for Canicross Unity project
o Adao_Dog_Placeholder
v -0.1100 0.2400 -0.3100
v 0.1100 0.2400 -0.3100
v 0.1100 0.5200 -0.3100
v -0.1100 0.5200 -0.3100
v -0.1100 0.2400 0.3100
v 0.1100 0.2400 0.3100
v 0.1100 0.5200 0.3100
v -0.1100 0.5200 0.3100
g Body
f 1 2 3 4
f 5 8 7 6
f 4 3 7 8
f 1 5 6 2
f 1 4 8 5
f 2 6 7 3
v -0.1200 0.2600 -0.3300
v 0.1200 0.2600 -0.3300
v 0.1200 0.5800 -0.3300
v -0.1200 0.5800 -0.3300
v -0.1200 0.2600 -0.1100
v 0.1200 0.2600 -0.1100
v 0.1200 0.5800 -0.1100
v -0.1200 0.5800 -0.1100
g Chest
f 9 10 11 12
f 13 16 15 14
f 12 11 15 16
f 9 13 14 10
f 9 12 16 13
f 10 14 15 11
v -0.0650 0.4900 -0.3900
v 0.0650 0.4900 -0.3900
v 0.0650 0.6700 -0.3900
v -0.0650 0.6700 -0.3900
v -0.0650 0.4900 -0.2500
v 0.0650 0.4900 -0.2500
v 0.0650 0.6700 -0.2500
v -0.0650 0.6700 -0.2500
g Neck
f 17 18 19 20
f 21 24 23 22
f 20 19 23 24
f 17 21 22 18
f 17 20 24 21
f 18 22 23 19
v -0.0800 0.6300 -0.4700
v 0.0800 0.6300 -0.4700
v 0.0800 0.8100 -0.4700
v -0.0800 0.8100 -0.4700
v -0.0800 0.6300 -0.2900
v 0.0800 0.6300 -0.2900
v 0.0800 0.8100 -0.2900
v -0.0800 0.8100 -0.2900
g Head
f 25 26 27 28
f 29 32 31 30
f 28 27 31 32
f 25 29 30 26
f 25 28 32 29
f 26 30 31 27
v -0.0450 0.6350 -0.5700
v 0.0450 0.6350 -0.5700
v 0.0450 0.7250 -0.5700
v -0.0450 0.7250 -0.5700
v -0.0450 0.6350 -0.4300
v 0.0450 0.6350 -0.4300
v 0.0450 0.7250 -0.4300
v -0.0450 0.7250 -0.4300
g Muzzle
f 33 34 35 36
f 37 40 39 38
f 36 35 39 40
f 33 37 38 34
f 33 36 40 37
f 34 38 39 35
v -0.0800 0.7900 -0.4100
v -0.0400 0.7900 -0.4100
v -0.0400 0.8700 -0.4100
v -0.0800 0.8700 -0.4100
v -0.0800 0.7900 -0.3500
v -0.0400 0.7900 -0.3500
v -0.0400 0.8700 -0.3500
v -0.0800 0.8700 -0.3500
g Ear_L
f 41 42 43 44
f 45 48 47 46
f 44 43 47 48
f 41 45 46 42
f 41 44 48 45
f 42 46 47 43
v 0.0400 0.7900 -0.4100
v 0.0800 0.7900 -0.4100
v 0.0800 0.8700 -0.4100
v 0.0400 0.8700 -0.4100
v 0.0400 0.7900 -0.3500
v 0.0800 0.7900 -0.3500
v 0.0800 0.8700 -0.3500
v 0.0400 0.8700 -0.3500
g Ear_R
f 49 50 51 52
f 53 56 55 54
f 52 51 55 56
f 49 53 54 50
f 49 52 56 53
f 50 54 55 51
v -0.1150 0.0100 -0.2350
v -0.0450 0.0100 -0.2350
v -0.0450 0.3100 -0.2350
v -0.1150 0.3100 -0.2350
v -0.1150 0.0100 -0.1650
v -0.0450 0.0100 -0.1650
v -0.0450 0.3100 -0.1650
v -0.1150 0.3100 -0.1650
g Leg_FL
f 57 58 59 60
f 61 64 63 62
f 60 59 63 64
f 57 61 62 58
f 57 60 64 61
f 58 62 63 59
v 0.0450 0.0100 -0.2350
v 0.1150 0.0100 -0.2350
v 0.1150 0.3100 -0.2350
v 0.0450 0.3100 -0.2350
v 0.0450 0.0100 -0.1650
v 0.1150 0.0100 -0.1650
v 0.1150 0.3100 -0.1650
v 0.0450 0.3100 -0.1650
g Leg_FR
f 65 66 67 68
f 69 72 71 70
f 68 67 71 72
f 65 69 70 66
f 65 68 72 69
f 66 70 71 67
v -0.1200 0.0100 0.1800
v -0.0400 0.0100 0.1800
v -0.0400 0.3100 0.1800
v -0.1200 0.3100 0.1800
v -0.1200 0.0100 0.2600
v -0.0400 0.0100 0.2600
v -0.0400 0.3100 0.2600
v -0.1200 0.3100 0.2600
g Leg_BL
f 73 74 75 76
f 77 80 79 78
f 76 75 79 80
f 73 77 78 74
f 73 76 80 77
f 74 78 79 75
v 0.0400 0.0100 0.1800
v 0.1200 0.0100 0.1800
v 0.1200 0.3100 0.1800
v 0.0400 0.3100 0.1800
v 0.0400 0.0100 0.2600
v 0.1200 0.0100 0.2600
v 0.1200 0.3100 0.2600
v 0.0400 0.3100 0.2600
g Leg_BR
f 81 82 83 84
f 85 88 87 86
f 84 83 87 88
f 81 85 86 82
f 81 84 88 85
f 82 86 87 83
v -0.0250 0.4750 0.2800
v 0.0250 0.4750 0.2800
v 0.0250 0.5250 0.2800
v -0.0250 0.5250 0.2800
v -0.0250 0.4750 0.5600
v 0.0250 0.4750 0.5600
v 0.0250 0.5250 0.5600
v -0.0250 0.5250 0.5600
g Tail
f 89 90 91 92
f 93 96 95 94
f 92 91 95 96
f 89 93 94 90
f 89 92 96 93
f 90 94 95 91
